<?xml version="1.0" encoding="utf-8"?>
<!-- Generator: Adobe Illustrator 16.0.0, SVG Export Plug-In . SVG Version: 6.00 Build 0)  -->
<!DOCTYPE svg PUBLIC "-//W3C//DTD SVG 1.1//EN" "http://www.w3.org/Graphics/SVG/1.1/DTD/svg11.dtd">
<svg version="1.1" id="Untitled-Seite_x25_201" xmlns="http://www.w3.org/2000/svg" xmlns:xlink="http://www.w3.org/1999/xlink"
	 x="0px" y="0px" width="32px" height="32px" viewBox="-463.5 296.5 32 32" enable-background="new -463.5 296.5 32 32"
	 xml:space="preserve">
<path fill="none" d="z"/>
<g id="Ebene_x25_201">
	<g>
		<path fill="#FFFFFF" d="M-433.5,300.5v23h-29v-23H-433.5 M-432.5,299.5h-31v25h31V299.5L-432.5,299.5z"/>
	</g>
	<path fill="#FFFFFF" d="M-445.5,314c0-2.485,2.015-4.5,4.5-4.5s4.5,2.015,4.5,4.5c0,1.476-0.708,2.785-1.805,3.605l1.805,3.895
		l-3.658-0.125l-0.757-2.875H-441c-0.125,0-0.248-0.006-0.37-0.016l-0.686,2.977l-3.444,0.037l1.516-4.128
		C-444.916,316.545-445.5,315.342-445.5,314z M-456.5,316.5h6v2h-6V316.5z M-456.5,311.5h8v2h-8V311.5z M-456.5,304.5h17v3h-17
		V304.5z M-461.5,301.5v21h27v-21H-461.5z"/>
</g>
<path fill="none" d="z"/>
</svg>
