<?xml version="1.0" standalone="no"?>
<!-- Generator: Adobe Fireworks 10, Export SVG Extension by Aaron Beall (http://fireworks.abeall.com) . Version: 0.6.1  -->
<!DOCTYPE svg PUBLIC "-//W3C//DTD SVG 1.1//EN" "http://www.w3.org/Graphics/SVG/1.1/DTD/svg11.dtd">
<svg id="new-desktop-controls-exam-next" viewBox="0 0 40 40" style="background-color:#ffffff00" version="1.1"
	xmlns="http://www.w3.org/2000/svg" xmlns:xlink="http://www.w3.org/1999/xlink" xml:space="preserve"
	x="0px" y="0px" width="40px" height="40px"
>
	<g id="Ebene%20113">
		<g>
			<path d="M 31.7212 17.6669 L 34 20 L 22.2788 32 L 20 29.6661 L 31.7212 17.6669 Z" fill="#507d8f"/>
			<path d="M 34 20 L 31.7212 22.3339 L 20 10.3339 L 22.2788 8 L 34 20 Z" fill="#507d8f"/>
		</g>
		<path id="Ellipse" d="M 17 20.5 C 17 19.1193 18.1193 18 19.5 18 C 20.8807 18 22 19.1193 22 20.5 C 22 21.8807 20.8807 23 19.5 23 C 18.1193 23 17 21.8807 17 20.5 Z" fill="#507d8f"/>
		<path id="Ellipse2" d="M 9 20.5 C 9 19.1193 10.1193 18 11.5 18 C 12.8807 18 14 19.1193 14 20.5 C 14 21.8807 12.8807 23 11.5 23 C 10.1193 23 9 21.8807 9 20.5 Z" fill="#507d8f"/>
	</g>
</svg>