<?xml version="1.0" encoding="utf-8"?>
<!-- Generator: Adobe Illustrator 16.0.0, SVG Export Plug-In . SVG Version: 6.00 Build 0)  -->
<!DOCTYPE svg PUBLIC "-//W3C//DTD SVG 1.1//EN" "http://www.w3.org/Graphics/SVG/1.1/DTD/svg11.dtd">
<svg version="1.1" id="Ebene_1" xmlns="http://www.w3.org/2000/svg" xmlns:xlink="http://www.w3.org/1999/xlink" x="0px" y="0px"
	 width="25px" height="25px" viewBox="-0.5 0.5 25 25" enable-background="new -0.5 0.5 25 25" xml:space="preserve">
<g>
	<g>
		<circle fill="#4D82B8" cx="12" cy="13" r="12"/>
		<g>
			<path fill="#FFFFFF" d="M12.07,7.865c-0.744,0-1.353-0.233-1.827-0.701c-0.475-0.467-0.712-1.041-0.712-1.72
				c0-0.698,0.238-1.27,0.712-1.714c0.474-0.443,1.083-0.665,1.827-0.665c0.754,0,1.365,0.222,1.835,0.665s0.705,1.015,0.705,1.714
				c0,0.709-0.235,1.291-0.705,1.743C13.436,7.639,12.824,7.865,12.07,7.865z M14.163,22.5H9.838l-0.001-12h4.325L14.163,22.5z"/>
		</g>
	</g>
</g>
</svg>
