<?xml version="1.0" standalone="no"?>
<!-- Generator: Adobe Fireworks 10, Export SVG Extension by Aaron Beall (http://fireworks.abeall.com) . Version: 0.6.1  -->
<!DOCTYPE svg PUBLIC "-//W3C//DTD SVG 1.1//EN" "http://www.w3.org/Graphics/SVG/1.1/DTD/svg11.dtd">
<svg id="icons.fw-Seite%201" viewBox="0 0 40 40" style="background-color:#ffffff00" version="1.1"
	xmlns="http://www.w3.org/2000/svg" xmlns:xlink="http://www.w3.org/1999/xlink" xml:space="preserve"
	x="0px" y="0px" width="40px" height="40px"
>
	<g>
		<g>
			<path d="M 35 10 L 21 10 L 21 19 L 35 19 L 35 10 Z" fill="#0090db"/>
		</g>
		<g>
			<path d="M 35 21 L 21 21 L 21 30 L 35 30 L 35 21 Z" fill="#0090db"/>
		</g>
		<path d="M 28 29 L 28 26 L 28 26 " fill="#0090db"/>
		<path d="M 28 18 L 28 15 L 28 15 " fill="#0090db"/>
		<g>
			<path d="M 19 30 L 5 30 L 5 21 L 19 21 L 19 30 Z" fill="#0090db"/>
		</g>
		<g>
			<path d="M 19 19 L 5 19 L 5 10 L 19 10 L 19 19 Z" fill="#0090db"/>
		</g>
		<path d="M 12 11 L 12 14 L 12 14 " fill="#0090db"/>
		<path d="M 12 22 L 12 25 L 12 25 " fill="#0090db"/>
	</g>
</svg>