<?xml version="1.0" encoding="utf-8"?>
<!-- Generator: Adobe Illustrator 16.0.0, SVG Export Plug-In . SVG Version: 6.00 Build 0)  -->
<!DOCTYPE svg PUBLIC "-//W3C//DTD SVG 1.1//EN" "http://www.w3.org/Graphics/SVG/1.1/DTD/svg11.dtd">
<svg version="1.1" id="doctype-icons-exam" xmlns="http://www.w3.org/2000/svg" xmlns:xlink="http://www.w3.org/1999/xlink" x="0px"
	 y="0px" width="32px" height="32px" viewBox="11.5 23.5 32 32" enable-background="new 11.5 23.5 32 32" xml:space="preserve">
<path fill="none" d="z"/>
<g id="Ebene_x25_2017">
	<g>
		<path fill="#929292" d="M33.68,31.475l6.424-6.975l1.396,1.696l-6.424,6.975L33.68,31.475z"/>
		<path fill="#929292" d="M31.5,29.892l3.62,3.249l1.397-1.697l-3.42-3.17L31.5,29.892z"/>
	</g>
	<g>
		<path fill="#929292" d="M33.68,40.339l6.424-6.976l1.396,1.697l-6.424,6.975L33.68,40.339z"/>
		<path fill="#929292" d="M31.5,38.756l3.62,3.248l1.397-1.696l-3.42-3.17L31.5,38.756z"/>
	</g>
	<path fill="#929292" d="M14.5,26.5h14v2h-14V26.5z"/>
	<path fill="#929292" d="M14.5,32.5h14v2h-14V32.5z"/>
	<path fill="#929292" d="M14.5,38.5h14v2h-14V38.5z"/>
	<path fill="#929292" d="M14.5,44.5h14v2h-14V44.5z"/>
	<path fill="#929292" d="M14.5,50.5h14v2h-14V50.5z"/>
	<g>
		<g>
			<path fill="#929292" d="M40.285,51.871l-6.414-6.695l-1.721,1.616l6.74,6.708L40.285,51.871z"/>
		</g>
		<path fill="#929292" d="M32.15,51.871l6.413-6.695l1.722,1.616l-6.74,6.708L32.15,51.871z"/>
	</g>
</g>
<path fill="none" d="z"/>
</svg>
