<?xml version="1.0" encoding="utf-8"?>
<!-- Generator: Adobe Illustrator 16.0.0, SVG Export Plug-In . SVG Version: 6.00 Build 0)  -->
<!DOCTYPE svg PUBLIC "-//W3C//DTD SVG 1.1//EN" "http://www.w3.org/Graphics/SVG/1.1/DTD/svg11.dtd">
<svg version="1.1" id="doctype-icons-video" xmlns="http://www.w3.org/2000/svg" xmlns:xlink="http://www.w3.org/1999/xlink"
	 x="0px" y="0px" width="32px" height="32px" viewBox="-15.5 16.5 32 32" enable-background="new -15.5 16.5 32 32"
	 xml:space="preserve">
<path fill="none" d="z"/>
<path fill="none" d="z"/>
<g id="Ebene_x25_201">
	<rect x="-12.5" y="20.5" fill="#929292" width="26" height="24"/>
	<rect x="-10.5" y="22.5" fill="#FFFFFF" width="2" height="2"/>
	<rect x="-10.5" y="40.5" fill="#FFFFFF" width="2" height="2"/>
	<rect x="-6.5" y="22.5" fill="#FFFFFF" width="2" height="2"/>
	<rect x="-6.5" y="40.5" fill="#FFFFFF" width="2" height="2"/>
	<rect x="-2.5" y="22.5" fill="#FFFFFF" width="2" height="2"/>
	<rect x="-2.5" y="40.5" fill="#FFFFFF" width="2" height="2"/>
	<rect x="1.5" y="22.5" fill="#FFFFFF" width="2" height="2"/>
	<rect x="1.5" y="40.5" fill="#FFFFFF" width="2" height="2"/>
	<rect x="5.5" y="22.5" fill="#FFFFFF" width="2" height="2"/>
	<rect x="5.5" y="40.5" fill="#FFFFFF" width="2" height="2"/>
	<rect x="9.5" y="22.5" fill="#FFFFFF" width="2" height="2"/>
	<rect x="9.5" y="40.5" fill="#FFFFFF" width="2" height="2"/>
	<rect x="-10.5" y="26.5" fill="#FFFFFF" width="22" height="12"/>
</g>
</svg>
