<?xml version="1.0" encoding="UTF-8" standalone="no"?>
<!-- Created with Inkscape (http://www.inkscape.org/) -->

<svg
   xmlns:dc="http://purl.org/dc/elements/1.1/"
   xmlns:cc="http://creativecommons.org/ns#"
   xmlns:rdf="http://www.w3.org/1999/02/22-rdf-syntax-ns#"
   xmlns:svg="http://www.w3.org/2000/svg"
   xmlns="http://www.w3.org/2000/svg"
   xmlns:sodipodi="http://sodipodi.sourceforge.net/DTD/sodipodi-0.dtd"
   xmlns:inkscape="http://www.inkscape.org/namespaces/inkscape"
   id="svg4000"
   version="1.1"
   inkscape:version="0.91 r13725"
   xml:space="preserve"
   width="293.95126"
   height="293.95126"
   viewBox="0 0 293.95128 293.95126"
   sodipodi:docname="appsist.svg"><metadata
     id="metadata4006"><rdf:RDF><cc:Work
         rdf:about=""><dc:format>image/svg+xml</dc:format><dc:type
           rdf:resource="http://purl.org/dc/dcmitype/StillImage" /><dc:title></dc:title></cc:Work></rdf:RDF></metadata><defs
     id="defs4004"><radialGradient
       fx="0"
       fy="0"
       cx="0"
       cy="0"
       r="1"
       gradientUnits="userSpaceOnUse"
       gradientTransform="matrix(117.58008,0,0,-117.58008,425.95166,337.23633)"
       spreadMethod="pad"
       id="radialGradient4022"><stop
         style="stop-opacity:1;stop-color:#53b7eb"
         offset="0"
         id="stop4024" /><stop
         style="stop-opacity:1;stop-color:#1f3c88"
         offset="1"
         id="stop4026" /></radialGradient><clipPath
       clipPathUnits="userSpaceOnUse"
       id="clipPath4034"><path
         d="m 350.89,454.817 c -23.385,0 -42.519,-19.134 -42.519,-42.52 l 0,0 0,-150.122 c 0,-23.386 19.134,-42.519 42.519,-42.519 l 0,0 150.122,0 c 23.386,0 42.52,19.133 42.52,42.519 l 0,0 0,150.122 c 0,23.386 -19.134,42.52 -42.52,42.52 l 0,0 -150.122,0 z"
         id="path4036"
         inkscape:connector-curvature="0" /></clipPath><clipPath
       clipPathUnits="userSpaceOnUse"
       id="clipPath4042"><path
         d="m 192.452,641.95 467,0 0,-303.01 -467,0 0,303.01 z"
         id="path4044"
         inkscape:connector-curvature="0" /></clipPath><clipPath
       clipPathUnits="userSpaceOnUse"
       id="clipPath4046"><path
         d="m 659.452,490.444 c 0,-83.676 -104.54,-151.504 -233.501,-151.504 -128.957,0 -233.499,67.828 -233.499,151.504 0,83.672 104.542,151.506 233.499,151.506 128.961,0 233.501,-67.834 233.501,-151.506"
         id="path4048"
         inkscape:connector-curvature="0" /></clipPath><radialGradient
       fx="0"
       fy="0"
       cx="0"
       cy="0"
       r="1"
       gradientUnits="userSpaceOnUse"
       gradientTransform="matrix(24.574158,-123.03236,231.56264,19.47081,420.67969,384.50488)"
       spreadMethod="pad"
       id="radialGradient4054"><stop
         style="stop-opacity:1;stop-color:#ffffff"
         offset="0"
         id="stop4056" /><stop
         style="stop-opacity:0;stop-color:#ffffff"
         offset="1"
         id="stop4058" /></radialGradient><mask
       maskUnits="userSpaceOnUse"
       x="0"
       y="0"
       width="1"
       height="1"
       id="mask4060"><g
         id="g4062"><g
           id="g4064"><g
             id="g4066"><g
               id="g4068"><path
                 d="m -32767,32767 65534,0 0,-65534 -65534,0 0,65534 z"
                 style="fill:url(#radialGradient4054);stroke:none"
                 id="path4070"
                 inkscape:connector-curvature="0" /></g></g></g></g></mask><radialGradient
       fx="0"
       fy="0"
       cx="0"
       cy="0"
       r="1"
       gradientUnits="userSpaceOnUse"
       gradientTransform="matrix(24.574158,-123.03236,231.56264,19.47081,420.67969,384.50488)"
       spreadMethod="pad"
       id="radialGradient4072"><stop
         style="stop-opacity:1;stop-color:#6ecfdb"
         offset="0"
         id="stop4074" /><stop
         style="stop-opacity:1;stop-color:#6ecfdb"
         offset="1"
         id="stop4076" /></radialGradient><clipPath
       clipPathUnits="userSpaceOnUse"
       id="clipPath4100"><path
         d="m 0,600.949 847.559,0 L 847.559,0 0,0 0,600.949 Z"
         id="path4102"
         inkscape:connector-curvature="0" /></clipPath></defs><sodipodi:namedview
     pagecolor="#ffffff"
     bordercolor="#666666"
     borderopacity="1"
     objecttolerance="10"
     gridtolerance="10"
     guidetolerance="10"
     inkscape:pageopacity="0"
     inkscape:pageshadow="2"
     inkscape:window-width="1600"
     inkscape:window-height="1137"
     id="namedview4002"
     showgrid="false"
     inkscape:zoom="1.0996284"
     inkscape:cx="144.26068"
     inkscape:cy="101.02311"
     inkscape:window-x="-9"
     inkscape:window-y="-9"
     inkscape:window-maximized="1"
     inkscape:current-layer="g4008"
     fit-margin-top="0"
     fit-margin-left="0"
     fit-margin-right="0"
     fit-margin-bottom="0" /><g
     id="g4008"
     inkscape:groupmode="layer"
     inkscape:label="appsist"
     transform="matrix(1.25,0,0,-1.25,-385.46375,568.52125)"><g
       id="g4010"><g
         id="g4012"><g
           id="g4018"><g
             id="g4020"><path
               d="m 350.89,454.817 c -23.385,0 -42.519,-19.134 -42.519,-42.52 l 0,0 0,-150.122 c 0,-23.386 19.134,-42.519 42.519,-42.519 l 0,0 150.122,0 c 23.386,0 42.52,19.133 42.52,42.519 l 0,0 0,150.122 c 0,23.386 -19.134,42.52 -42.52,42.52 l 0,0 -150.122,0 z"
               style="fill:url(#radialGradient4022);stroke:none"
               id="path4028"
               inkscape:connector-curvature="0" /></g></g></g></g><g
       id="g4030"><g
         id="g4032"
         clip-path="url(#clipPath4034)"><g
           id="g4038"><g
             id="g4040" /><g
             id="g4078"><g
               clip-path="url(#clipPath4042)"
               id="g4080"
               style="opacity:0.77000397"><g
                 id="g4082"><g
                   clip-path="url(#clipPath4046)"
                   id="g4084"><g
                     id="g4086"><g
                       id="g4088" /><g
                       mask="url(#mask4060)"
                       id="g4090"><g
                         id="g4092"><path
                           d="m 659.452,490.444 c 0,-83.676 -104.54,-151.504 -233.501,-151.504 -128.957,0 -233.499,67.828 -233.499,151.504 0,83.672 104.542,151.506 233.499,151.506 128.961,0 233.501,-67.834 233.501,-151.506"
                           style="fill:url(#radialGradient4072);stroke:none"
                           id="path4094"
                           inkscape:connector-curvature="0" /></g></g></g></g></g></g></g></g></g></g><g
       id="g4096"><g
         id="g4098"
         clip-path="url(#clipPath4100)"><g
           id="g4104"
           transform="translate(444.2358,344.0649)"><path
             d="m 0,0 c -2.938,0 -5.329,-2.299 -5.329,-5.126 0,-2.827 2.391,-5.126 5.329,-5.126 2.939,0 5.332,2.299 5.332,5.126 C 5.332,-2.299 2.939,0 0,0 m -1.212,-24.442 c -0.585,0.008 -1.15,0.096 -1.697,0.182 -0.202,0.031 -0.404,0.064 -0.606,0.09 l -0.473,0.063 -0.09,0.451 c -0.221,1.084 -0.369,2.264 -0.445,3.514 -0.364,0.104 -0.711,0.231 -1.052,0.352 -0.407,0.128 -0.775,0.29 -1.129,0.454 -0.896,-0.789 -1.878,-1.528 -2.995,-2.25 l -0.343,-0.222 -0.358,0.195 c -0.592,0.322 -1.123,0.709 -1.637,1.08 l -0.646,0.467 0.135,0.431 c 0.332,1.059 0.773,2.171 1.31,3.308 -0.272,0.254 -0.518,0.518 -0.76,0.778 -0.3,0.295 -0.546,0.604 -0.779,0.906 -1.166,-0.298 -2.393,-0.515 -3.739,-0.66 l -0.41,-0.044 -0.223,0.331 c -0.35,0.514 -0.619,1.057 -0.878,1.583 l -0.405,0.805 0.328,0.325 c 0.8,0.787 1.727,1.575 2.757,2.349 -0.12,0.354 -0.212,0.71 -0.3,1.056 -0.117,0.374 -0.187,0.753 -0.248,1.127 -1.208,0.265 -2.398,0.625 -3.625,1.091 l -0.386,0.147 -0.033,0.399 c -0.055,0.654 -0.051,1.344 0.011,2.242 l 0.032,0.437 0.431,0.133 c 1.168,0.359 2.369,0.643 3.574,0.85 0.059,0.368 0.13,0.742 0.247,1.118 0.089,0.345 0.182,0.706 0.305,1.066 -1.003,0.83 -1.903,1.697 -2.684,2.585 l -0.275,0.313 0.177,0.372 c 0.392,0.819 0.733,1.429 1.103,1.979 l 0.243,0.359 0.437,-0.076 c 1.254,-0.217 2.428,-0.496 3.574,-0.848 0.231,0.297 0.471,0.598 0.758,0.878 0.246,0.266 0.502,0.54 0.785,0.804 -0.483,1.173 -0.863,2.344 -1.132,3.486 l -0.092,0.398 0.333,0.25 c 0.681,0.513 1.313,0.926 1.93,1.264 l 0.387,0.211 0.352,-0.263 c 0.995,-0.738 1.902,-1.508 2.76,-2.344 0.347,0.161 0.707,0.319 1.096,0.44 l 0.035,0.013 c 0.341,0.122 0.689,0.246 1.052,0.35 0.142,1.267 0.373,2.475 0.689,3.594 l 0.113,0.4 0.425,0.066 c 0.816,0.125 1.552,0.232 2.317,0.246 l 0.442,0.01 0.182,-0.389 C 0.22,12.617 0.64,11.554 0.973,10.499 0.998,10.498 1.023,10.498 1.05,10.496 1.403,10.484 1.768,10.47 2.143,10.412 2.326,10.38 2.5,10.356 2.674,10.333 c 0.201,-0.026 0.405,-0.054 0.612,-0.09 0.724,1.034 1.51,2.002 2.343,2.882 l 0.307,0.324 0.426,-0.157 c 0.21,-0.077 0.423,-0.149 0.636,-0.222 0.501,-0.168 1.02,-0.343 1.52,-0.591 L 8.904,12.286 8.879,11.867 C 8.799,10.628 8.654,9.473 8.435,8.349 8.455,8.338 8.475,8.326 8.494,8.315 8.796,8.141 9.107,7.961 9.411,7.758 9.576,7.635 9.719,7.535 9.861,7.436 10.023,7.321 10.189,7.204 10.354,7.08 c 1.138,0.591 2.303,1.096 3.466,1.504 l 0.43,0.15 0.301,-0.329 c 0.148,-0.163 0.303,-0.321 0.457,-0.48 0.361,-0.372 0.734,-0.757 1.057,-1.203 L 16.314,6.379 16.088,6.021 C 15.415,4.953 14.729,3.993 13.999,3.104 14.012,3.086 14.023,3.066 14.035,3.049 14.223,2.758 14.414,2.46 14.583,2.137 14.664,1.967 14.742,1.819 14.818,1.67 14.91,1.492 15.004,1.311 15.092,1.123 c 0.099,0.002 0.197,0.003 0.297,0.003 1.195,0 2.373,-0.075 3.501,-0.221 l 0.454,-0.059 0.107,-0.428 c 0.053,-0.216 0.113,-0.429 0.172,-0.643 0.137,-0.489 0.278,-0.993 0.352,-1.523 l 0.056,-0.417 -0.374,-0.217 C 18.594,-3 17.498,-3.553 16.393,-4.028 l 0.056,-1.105 -0.057,-1.127 c 1.106,-0.544 2.202,-1.179 3.264,-1.893 l 0.355,-0.24 -0.083,-0.411 c -0.135,-0.66 -0.322,-1.311 -0.5,-1.941 l -0.184,-0.642 -0.478,-0.027 c -0.616,-0.034 -1.233,-0.053 -1.837,-0.053 l -10e-4,0 c -0.618,0 -1.239,0.02 -1.847,0.056 -0.085,-0.178 -0.173,-0.351 -0.261,-0.52 -0.076,-0.15 -0.154,-0.299 -0.226,-0.451 -0.178,-0.341 -0.371,-0.639 -0.556,-0.927 -0.017,-0.027 -0.034,-0.053 -0.051,-0.08 0.702,-0.951 1.349,-1.981 1.968,-3.137 l 0.197,-0.368 -0.267,-0.325 c -0.403,-0.491 -0.848,-0.948 -1.279,-1.39 l -0.573,-0.591 -0.437,0.19 c -1.133,0.493 -2.229,1.047 -3.262,1.65 -0.157,-0.119 -0.314,-0.228 -0.469,-0.337 -0.144,-0.102 -0.287,-0.202 -0.427,-0.307 -0.329,-0.221 -0.639,-0.4 -0.94,-0.573 -0.027,-0.017 -0.056,-0.032 -0.084,-0.048 0.164,-1.162 0.24,-2.362 0.232,-3.656 L 8.645,-22.698 8.248,-22.865 C 7.619,-23.133 6.971,-23.35 6.342,-23.561 l -0.696,-0.234 -0.294,0.363 c -0.766,0.942 -1.467,1.923 -2.09,2.918 -0.201,-0.033 -0.399,-0.06 -0.593,-0.086 -0.173,-0.023 -0.346,-0.046 -0.517,-0.075 -0.388,-0.061 -0.757,-0.075 -1.114,-0.087 -0.03,-0.002 -0.059,-0.003 -0.09,-0.004 -0.396,-1.064 -0.897,-2.135 -1.559,-3.334 l -0.192,-0.348 -0.409,0.006 z"
             style="fill:#ffffff;fill-opacity:1;fill-rule:nonzero;stroke:none"
             id="path4106"
             inkscape:connector-curvature="0" /></g><g
           id="g4108"
           transform="translate(502.2798,338.9761)"><path
             d="m 0,0 c -0.64,-1.514 -1.595,-2.909 -2.788,-4.079 -1.197,-1.167 -2.623,-2.1 -4.174,-2.727 -1.552,-0.63 -3.221,-0.951 -4.921,-0.958 -1.699,0.007 -3.368,0.328 -4.918,0.958 -1.551,0.627 -2.981,1.56 -4.177,2.727 -1.193,1.17 -2.146,2.565 -2.789,4.079 -0.642,1.518 -0.972,3.15 -0.978,4.811 0.006,1.663 0.336,3.293 0.978,4.809 0.643,1.516 1.596,2.912 2.789,4.081 1.196,1.167 2.626,2.101 4.177,2.727 1.55,0.628 3.219,0.95 4.918,0.957 1.7,-0.007 3.369,-0.329 4.921,-0.957 1.551,-0.626 2.977,-1.56 4.174,-2.727 C -1.595,12.532 -0.64,11.136 0,9.62 0.644,8.104 0.974,6.474 0.979,4.811 0.974,3.15 0.644,1.518 0,0 m 1.573,10.257 c -0.726,1.719 -1.807,3.3 -3.156,4.621 -1.354,1.319 -2.969,2.377 -4.729,3.086 -1.757,0.714 -3.652,1.079 -5.571,1.085 -1.917,-0.006 -3.813,-0.371 -5.571,-1.085 -1.758,-0.709 -3.375,-1.767 -4.727,-3.086 -1.349,-1.321 -2.429,-2.902 -3.156,-4.621 -0.728,-1.718 -1.105,-3.57 -1.109,-5.446 0.004,-1.874 0.381,-3.728 1.109,-5.446 0.727,-1.718 1.807,-3.3 3.156,-4.621 1.352,-1.319 2.969,-2.377 4.727,-3.085 1.758,-0.716 3.654,-1.08 5.571,-1.086 1.919,0.006 3.814,0.37 5.571,1.086 1.76,0.708 3.375,1.766 4.729,3.085 1.349,1.321 2.43,2.903 3.156,4.621 0.729,1.718 1.104,3.572 1.11,5.446 -0.006,1.876 -0.381,3.728 -1.11,5.446 M 2.274,-0.92 C 1.509,-2.729 0.372,-4.392 -1.048,-5.78 -2.47,-7.169 -4.171,-8.279 -6.02,-9.029 c -1.85,-0.748 -3.846,-1.135 -5.863,-1.14 -2.015,0.005 -4.011,0.392 -5.862,1.14 -1.85,0.75 -3.549,1.86 -4.973,3.249 -1.419,1.388 -2.554,3.051 -3.32,4.86 -0.77,1.808 -1.161,3.761 -1.168,5.731 0.007,1.97 0.398,3.922 1.168,5.729 0.766,1.811 1.901,3.473 3.32,4.863 1.424,1.388 3.123,2.498 4.973,3.246 1.851,0.75 3.847,1.137 5.862,1.142 2.017,-0.005 4.013,-0.392 5.863,-1.142 1.849,-0.748 3.55,-1.858 4.972,-3.246 1.42,-1.39 2.557,-3.052 3.322,-4.863 C 3.04,8.733 3.436,6.781 3.44,4.811 3.436,2.841 3.04,0.888 2.274,-0.92 m 7.948,5.731 -0.08,1.624 c 0.939,0.378 1.884,0.796 2.775,1.251 -0.164,1.26 -0.396,2.512 -0.764,3.738 -1.015,0.083 -2.011,0.132 -3.043,0.127 l -0.572,1.53 c -0.213,0.502 -0.471,0.983 -0.708,1.475 0.714,0.701 1.428,1.446 2.071,2.199 -0.644,1.106 -1.36,2.168 -2.17,3.162 C 6.767,19.618 5.816,19.275 4.869,18.888 L 3.746,20.09 2.517,21.187 c 0.398,0.923 0.748,1.856 1.054,2.797 -1.017,0.793 -2.104,1.491 -3.235,2.122 -0.771,-0.629 -1.534,-1.326 -2.25,-2.025 -0.503,0.232 -0.996,0.484 -1.509,0.691 l -1.566,0.561 c 0.006,1.008 -0.043,1.982 -0.129,2.976 -1.254,0.358 -2.533,0.584 -3.824,0.745 -0.466,-0.871 -0.893,-1.793 -1.278,-2.713 l -1.663,0.079 -1.661,-0.079 c -0.387,0.92 -0.814,1.842 -1.277,2.713 -1.293,-0.161 -2.573,-0.387 -3.825,-0.745 -0.087,-0.994 -0.134,-1.968 -0.13,-2.976 l -1.565,-0.561 c -0.515,-0.207 -1.008,-0.459 -1.51,-0.691 -0.716,0.699 -1.478,1.396 -2.249,2.025 -1.131,-0.631 -2.219,-1.329 -3.234,-2.122 0.306,-0.941 0.653,-1.874 1.052,-2.797 l -1.231,-1.097 -1.121,-1.202 c -0.945,0.387 -1.899,0.73 -2.861,1.027 -0.813,-0.992 -1.526,-2.054 -2.172,-3.16 0.646,-0.755 1.355,-1.498 2.072,-2.199 -0.238,-0.492 -0.494,-0.973 -0.709,-1.475 l -0.574,-1.53 c -1.029,0.005 -2.023,-0.044 -3.039,-0.127 -0.368,-1.226 -0.601,-2.478 -0.764,-3.738 0.889,-0.455 1.836,-0.873 2.776,-1.251 l -0.082,-1.624 0.082,-1.623 c -0.94,-0.378 -1.887,-0.797 -2.776,-1.25 0.163,-1.264 0.396,-2.513 0.764,-3.74 1.016,-0.084 2.01,-0.133 3.039,-0.127 l 0.574,-1.53 c 0.215,-0.502 0.471,-0.983 0.709,-1.477 -0.717,-0.699 -1.426,-1.443 -2.072,-2.196 0.646,-1.105 1.359,-2.169 2.172,-3.164 0.962,0.299 1.916,0.643 2.861,1.029 l 1.121,-1.201 1.231,-1.096 c -0.399,-0.924 -0.746,-1.857 -1.052,-2.797 1.015,-0.796 2.103,-1.492 3.234,-2.122 0.771,0.628 1.533,1.324 2.249,2.024 0.502,-0.233 0.995,-0.482 1.51,-0.692 l 1.565,-0.562 c -0.004,-1.007 0.043,-1.979 0.13,-2.971 1.252,-0.362 2.532,-0.588 3.825,-0.749 0.465,0.872 0.891,1.794 1.277,2.713 l 1.661,-0.078 1.663,0.078 c 0.385,-0.919 0.812,-1.841 1.278,-2.713 1.293,0.161 2.572,0.387 3.824,0.749 0.086,0.992 0.135,1.964 0.129,2.971 l 1.566,0.562 c 0.513,0.21 1.008,0.459 1.509,0.692 0.718,-0.7 1.479,-1.396 2.25,-2.024 1.131,0.63 2.218,1.326 3.235,2.122 -0.306,0.94 -0.656,1.873 -1.054,2.797 l 1.229,1.096 1.124,1.201 c 0.946,-0.386 1.897,-0.73 2.861,-1.027 0.81,0.993 1.526,2.057 2.17,3.162 -0.643,0.753 -1.357,1.497 -2.071,2.196 0.237,0.494 0.495,0.975 0.708,1.477 l 0.572,1.53 c 1.032,-0.006 2.028,0.043 3.043,0.127 0.368,1.227 0.601,2.476 0.764,3.74 -0.891,0.453 -1.836,0.872 -2.775,1.25 l 0.08,1.623 z"
             style="fill:#ffffff;fill-opacity:1;fill-rule:nonzero;stroke:none"
             id="path4110"
             inkscape:connector-curvature="0" /></g><g
           id="g4112"
           transform="translate(444.2358,333.1704)"><path
             d="m 0,0 c -3.312,0 -5.997,2.581 -5.997,5.769 0,3.186 2.685,5.768 5.997,5.768 3.314,0 6,-2.582 6,-5.768 C 6,2.581 3.314,0 0,0 m 15.781,5.762 -0.08,1.516 c 1.221,0.501 2.424,1.095 3.61,1.785 -0.098,0.712 -0.336,1.4 -0.51,2.1 -1.397,0.181 -2.809,0.24 -4.155,0.204 -0.178,0.475 -0.441,0.917 -0.66,1.375 -0.237,0.452 -0.535,0.872 -0.8,1.307 0.852,1.003 1.613,2.059 2.332,3.2 -0.43,0.591 -0.975,1.085 -1.469,1.626 -1.319,-0.463 -2.599,-1.042 -3.772,-1.676 -0.391,0.338 -0.834,0.616 -1.248,0.926 -0.431,0.289 -0.894,0.534 -1.34,0.804 0.27,1.259 0.438,2.541 0.523,3.872 -0.667,0.33 -1.39,0.529 -2.089,0.785 -0.947,-1 -1.8,-2.086 -2.532,-3.172 -0.509,0.133 -1.037,0.17 -1.554,0.257 -0.52,0.082 -1.049,0.066 -1.572,0.105 -0.373,1.269 -0.842,2.448 -1.408,3.665 -0.747,-0.013 -1.485,-0.124 -2.223,-0.238 -0.363,-1.285 -0.594,-2.637 -0.716,-3.936 -0.514,-0.108 -1.009,-0.288 -1.5,-0.464 -0.502,-0.155 -0.97,-0.391 -1.444,-0.61 -0.94,0.95 -1.944,1.814 -3.026,2.618 -0.65,-0.356 -1.26,-0.768 -1.849,-1.21 0.305,-1.3 0.751,-2.592 1.275,-3.8 -0.403,-0.329 -0.754,-0.706 -1.103,-1.083 -0.37,-0.361 -0.67,-0.78 -0.987,-1.183 -1.291,0.423 -2.59,0.737 -3.94,0.971 -0.407,-0.604 -0.743,-1.244 -1.058,-1.899 0.895,-1.016 1.918,-1.964 2.963,-2.8 -0.201,-0.47 -0.326,-0.96 -0.453,-1.452 -0.151,-0.486 -0.219,-0.989 -0.297,-1.489 -1.344,-0.206 -2.666,-0.508 -3.961,-0.905 -0.049,-0.717 -0.071,-1.433 -0.011,-2.149 1.302,-0.497 2.614,-0.884 3.972,-1.155 0.078,-0.5 0.146,-1.003 0.297,-1.489 0.127,-0.491 0.252,-0.981 0.453,-1.45 -1.058,-0.771 -2.133,-1.65 -3.074,-2.577 0.327,-0.645 0.625,-1.308 1.035,-1.91 1.406,0.151 2.74,0.387 4.074,0.758 0.317,-0.403 0.617,-0.821 0.987,-1.183 0.349,-0.376 0.701,-0.755 1.103,-1.081 -0.568,-1.157 -1.094,-2.411 -1.482,-3.652 0.597,-0.429 1.183,-0.876 1.836,-1.232 1.171,0.759 2.242,1.565 3.246,2.489 0.474,-0.219 0.942,-0.453 1.444,-0.607 0.491,-0.179 0.986,-0.359 1.5,-0.466 0.058,-1.275 0.202,-2.623 0.459,-3.896 0.739,-0.099 1.476,-0.255 2.222,-0.267 0.668,1.213 1.222,2.385 1.666,3.653 0.523,0.037 1.052,0.024 1.572,0.105 0.517,0.088 1.045,0.125 1.554,0.257 0.667,-1.108 1.43,-2.195 2.287,-3.25 0.704,0.237 1.416,0.467 2.101,0.757 0.007,1.373 -0.083,2.689 -0.29,3.98 0.446,0.268 0.909,0.514 1.34,0.802 0.414,0.31 0.857,0.587 1.248,0.926 1.125,-0.681 2.327,-1.301 3.595,-1.853 0.507,0.524 1.027,1.043 1.489,1.603 -0.654,1.222 -1.363,2.345 -2.175,3.399 0.265,0.437 0.563,0.856 0.8,1.307 0.219,0.46 0.482,0.903 0.66,1.377 1.328,-0.1 2.691,-0.113 4.081,-0.034 0.197,0.693 0.402,1.388 0.544,2.092 -1.167,0.786 -2.359,1.464 -3.57,2.031 l 0.08,1.516 z"
             style="fill:#ffffff;fill-opacity:1;fill-rule:nonzero;stroke:none"
             id="path4114"
             inkscape:connector-curvature="0" /></g><g
           id="g4116"
           transform="translate(362.3174,292.8086)"><path
             d="m 0,0 c -1.181,0 -2.305,0.508 -3.085,1.393 -1.143,1.296 -1.351,3.185 -0.518,4.701 3.42,6.215 6.398,12.997 9.34,21.276 -0.24,-0.006 -0.479,-0.009 -0.717,-0.009 -8.537,0 -16.54,3.428 -22.537,9.651 -5.97,6.2 -9.258,14.473 -9.258,23.296 0,17.941 13.826,32.706 30.936,33.185 1.638,8.879 6.048,17.119 12.459,23.256 7.498,7.177 17.233,11.13 27.41,11.13 6.508,0 12.99,-1.66 18.749,-4.798 1.99,-1.086 2.727,-3.587 1.641,-5.578 -0.72,-1.323 -2.105,-2.143 -3.612,-2.143 -0.683,0 -1.362,0.173 -1.966,0.502 -4.618,2.518 -9.602,3.796 -14.812,3.796 -16.712,0 -30.563,-13.238 -32.218,-30.79 -0.103,-1.084 -0.644,-2.101 -1.484,-2.791 -0.733,-0.602 -1.66,-0.934 -2.609,-0.934 -0.139,0 -0.278,0.007 -0.417,0.021 -0.773,0.079 -1.54,0.119 -2.282,0.119 -12.998,0 -23.573,-11.204 -23.573,-24.975 0,-13.634 10.575,-24.725 23.573,-24.725 0.772,0 1.559,0.041 2.339,0.119 0.139,0.015 0.279,0.022 0.418,0.022 l 3.757,0 c 1.317,0 2.563,-0.637 3.334,-1.704 0.77,-1.067 0.983,-2.451 0.569,-3.701 -1.513,-4.558 -3.55,-10.444 -6.213,-16.636 6.566,4.262 14.177,10.771 16.867,19.183 0.547,1.709 2.121,2.858 3.915,2.858 l 30.004,0 c 2.268,0 4.112,-1.844 4.112,-4.111 0,-2.267 -1.844,-4.112 -4.112,-4.112 l -27.16,0 C 25.233,9.852 2.484,0.674 1.513,0.289 1.029,0.098 0.52,0 0,0"
             style="fill:#ffffff;fill-opacity:1;fill-rule:nonzero;stroke:none"
             id="path4118"
             inkscape:connector-curvature="0" /></g><g
           id="g4120"
           transform="translate(362.3174,293.4883)"><path
             d="M 0,0 C -0.966,0 -1.911,0.406 -2.576,1.162 -3.533,2.248 -3.706,3.818 -3.008,5.086 1.239,12.804 4.291,20.5 6.71,27.408 6.144,27.375 5.58,27.359 5.02,27.359 c -8.35,0 -16.18,3.354 -22.047,9.446 -5.848,6.071 -9.069,14.177 -9.069,22.823 0,17.83 13.803,32.354 30.827,32.517 1.536,8.98 5.854,17.207 12.358,23.432 7.372,7.057 16.94,10.943 26.941,10.943 6.394,0 12.765,-1.63 18.424,-4.715 1.664,-0.908 2.277,-2.992 1.371,-4.657 -0.908,-1.665 -2.993,-2.276 -4.657,-1.37 -4.72,2.574 -9.814,3.879 -15.138,3.879 -17.065,0 -31.206,-13.502 -32.895,-31.406 C 11.05,87.341 10.604,86.502 9.897,85.922 9.19,85.34 8.279,85.067 7.371,85.16 6.575,85.241 5.785,85.282 5.02,85.282 c -13.373,0 -24.252,-11.509 -24.252,-25.654 0,-14.008 10.879,-25.404 24.252,-25.404 0.795,0 1.605,0.042 2.408,0.123 0.116,0.013 0.233,0.019 0.349,0.019 l 3.757,0 c 1.102,0 2.138,-0.53 2.783,-1.423 0.645,-0.894 0.822,-2.044 0.475,-3.09 -1.87,-5.637 -4.11,-11.98 -7.078,-18.599 6.996,4.244 16.008,11.295 19.023,20.725 0.455,1.422 1.777,2.387 3.269,2.387 l 30.004,0 c 1.897,0 3.432,-1.536 3.432,-3.433 0,-1.894 -1.535,-3.432 -3.432,-3.432 l -27.611,0 C 25.078,9.845 2.271,0.639 1.262,0.24 0.852,0.078 0.424,0 0,0"
             style="fill:#ffffff;fill-opacity:1;fill-rule:nonzero;stroke:none"
             id="path4122"
             inkscape:connector-curvature="0" /></g><g
           id="g4124"
           transform="translate(454.5737,374.7222)"><path
             d="m 0,0 c -8.281,0 -14.993,6.538 -14.993,14.604 0,8.067 6.712,14.604 14.993,14.604 8.281,0 14.993,-6.537 14.993,-14.604 C 14.993,6.538 8.281,0 0,0 m 0,31.583 c -9.627,0 -17.431,-7.602 -17.431,-16.979 0,-9.376 7.804,-16.979 17.431,-16.979 9.628,0 17.431,7.603 17.431,16.979 0,9.377 -7.803,16.979 -17.431,16.979 M 20.66,11.846 C 20.322,9.362 19.504,6.938 18.263,4.733 17.023,2.529 15.357,0.554 13.387,-1.06 11.418,-2.675 9.145,-3.921 6.705,-4.735 4.262,-5.561 1.656,-5.913 -0.906,-5.818 c -2.57,0.097 -5.119,0.665 -7.484,1.665 -2.368,0.997 -4.544,2.433 -6.376,4.198 -1.834,1.762 -3.323,3.851 -4.375,6.139 -1.056,2.281 -1.677,4.786 -1.807,7.286 -0.138,2.502 0.206,5.023 1.01,7.409 0.802,2.384 2.063,4.629 3.703,6.568 1.633,1.945 3.635,3.584 5.874,4.815 2.237,1.224 4.718,2.068 7.281,2.423 2.553,0.361 5.158,0.264 7.667,-0.297 2.509,-0.557 4.917,-1.573 7.054,-2.983 2.138,-1.408 4.004,-3.201 5.468,-5.258 1.467,-2.058 2.531,-4.376 3.147,-6.829 0.601,-2.452 0.744,-4.991 0.404,-7.472 m 5.736,-0.745 c 0.104,0.662 0.149,1.332 0.196,1.998 1.672,0.42 3.368,0.931 5.008,1.541 0.004,0.906 -0.054,1.81 -0.131,2.714 -1.729,0.551 -3.44,0.995 -5.187,1.321 -0.094,0.664 -0.257,1.314 -0.399,1.97 -0.182,0.644 -0.342,1.295 -0.569,1.93 1.424,0.981 2.79,2.043 4.109,3.19 -0.337,0.842 -0.706,1.675 -1.126,2.483 -1.8,-0.079 -3.59,-0.278 -5.322,-0.577 -0.356,0.573 -0.709,1.148 -1.112,1.691 -0.383,0.557 -0.812,1.081 -1.236,1.608 0.943,1.405 1.836,2.891 2.635,4.425 -0.628,0.667 -1.293,1.3 -1.971,1.918 -1.666,-0.732 -3.233,-1.521 -4.75,-2.426 -0.533,0.424 -1.098,0.805 -1.658,1.192 -0.578,0.363 -1.154,0.729 -1.756,1.053 0.375,1.666 0.639,3.332 0.826,5.056 -0.834,0.396 -1.682,0.768 -2.549,1.092 -1.273,-1.238 -2.459,-2.565 -3.533,-3.918 -0.657,0.196 -1.318,0.376 -1.99,0.522 -0.67,0.15 -1.344,0.277 -2.026,0.373 -0.271,1.668 -0.638,3.348 -1.109,5 -0.925,0.09 -1.857,0.119 -2.786,0.123 -0.728,-1.611 -1.337,-3.248 -1.833,-4.904 -0.688,-0.036 -1.368,-0.123 -2.051,-0.213 -0.679,-0.099 -1.354,-0.218 -2.025,-0.369 -0.877,1.479 -1.832,2.876 -2.885,4.277 -0.888,-0.258 -1.774,-0.531 -2.638,-0.865 -0.087,-1.744 -0.044,-3.514 0.097,-5.211 -0.617,-0.297 -1.238,-0.583 -1.83,-0.924 -0.606,-0.317 -1.18,-0.69 -1.758,-1.049 -1.348,1.041 -2.791,2.055 -4.279,2.963 -0.741,-0.545 -1.451,-1.133 -2.145,-1.736 0.59,-1.678 1.258,-3.276 2.041,-4.829 -0.484,-0.476 -0.924,-0.991 -1.369,-1.499 -0.43,-0.523 -0.851,-1.052 -1.24,-1.604 -1.67,0.515 -3.345,0.922 -5.096,1.265 -0.477,-0.775 -0.934,-1.561 -1.347,-2.371 1.156,-1.353 2.39,-2.619 3.681,-3.788 -0.264,-0.618 -0.504,-1.245 -0.719,-1.88 -0.205,-0.64 -0.416,-1.278 -0.566,-1.933 -1.738,-0.106 -3.478,-0.309 -5.216,-0.609 -0.171,-0.89 -0.303,-1.789 -0.382,-2.692 1.573,-0.853 3.203,-1.598 4.838,-2.234 -0.008,-0.668 -0.016,-1.339 0.033,-2.008 0.028,-0.668 0.106,-1.334 0.186,-1.998 -1.572,-0.713 -3.113,-1.516 -4.635,-2.411 0.185,-0.886 0.387,-1.767 0.645,-2.632 1.782,-0.242 3.584,-0.365 5.338,-0.386 0.24,-0.627 0.482,-1.253 0.773,-1.86 0.268,-0.617 0.592,-1.208 0.912,-1.801 -1.196,-1.211 -2.363,-2.516 -3.429,-3.875 0.486,-0.771 1.022,-1.514 1.576,-2.242 1.764,0.414 3.467,0.918 5.127,1.532 0.439,-0.515 0.924,-0.989 1.408,-1.466 0.488,-0.47 0.994,-0.922 1.521,-1.353 -0.673,-1.565 -1.251,-3.159 -1.76,-4.824 0.749,-0.536 1.511,-1.051 2.301,-1.527 1.493,1.005 2.893,2.072 4.21,3.228 0.606,-0.32 1.229,-0.602 1.857,-0.875 0.635,-0.256 1.269,-0.518 1.922,-0.725 -0.053,-1.7 -0.004,-3.397 0.14,-5.117 0.895,-0.242 1.799,-0.46 2.715,-0.619 1.018,1.443 1.932,2.965 2.732,4.482 0.683,-0.062 1.368,-0.138 2.055,-0.151 0.687,-0.039 1.375,-0.017 2.061,-0.007 0.582,-1.576 1.265,-3.175 2.039,-4.712 0.926,0.083 1.844,0.22 2.758,0.376 0.402,1.734 0.701,3.427 0.875,5.151 0.667,0.162 1.324,0.359 1.975,0.574 0.648,0.222 1.296,0.449 1.923,0.722 1.133,-1.283 2.352,-2.522 3.643,-3.687 0.835,0.396 1.643,0.849 2.436,1.322 -0.251,1.742 -0.614,3.447 -1.085,5.11 0.56,0.386 1.101,0.802 1.626,1.232 0.529,0.429 1.032,0.885 1.526,1.35 1.532,-0.793 3.121,-1.508 4.768,-2.149 0.621,0.672 1.213,1.371 1.776,2.091 -0.899,1.544 -1.85,2.993 -2.915,4.381 0.383,0.555 0.723,1.137 1.065,1.719 0.318,0.592 0.644,1.183 0.917,1.797 1.735,-0.208 3.468,-0.313 5.245,-0.335 0.328,0.845 0.633,1.702 0.882,2.575 -1.377,1.118 -2.855,2.148 -4.328,3.063 0.13,0.656 0.263,1.315 0.344,1.981"
             style="fill:#ffffff;fill-opacity:1;fill-rule:nonzero;stroke:none"
             id="path4126"
             inkscape:connector-curvature="0" /></g><g
           id="g4128"
           transform="translate(351.7886,274.002)"><path
             d="m 0,0 c -3.665,0 -6.627,-3.162 -6.627,-7.43 0,-4.115 2.962,-7.279 6.627,-7.279 3.665,0 6.626,3.264 6.626,7.279 C 6.626,-3.313 3.665,0 0,0 m 13.253,-20.281 -6.275,0 0,2.711 c -1.958,-2.159 -4.77,-3.262 -7.882,-3.262 -6.827,0 -12.4,6.023 -12.4,13.453 0,7.481 5.472,13.604 13.304,13.604 7.781,0 13.253,-6.123 13.253,-13.604 l 0,-12.902 z"
             style="fill:#ffffff;fill-opacity:1;fill-rule:nonzero;stroke:none"
             id="path4130"
             inkscape:connector-curvature="0" /></g><g
           id="g4132"
           transform="translate(382.2617,274.002)"><path
             d="m 0,0 c -3.665,0 -6.627,-3.262 -6.627,-7.279 0,-4.116 2.962,-7.43 6.627,-7.43 3.665,0 6.626,3.213 6.626,7.43 C 6.626,-3.111 3.665,0 0,0 m 0.903,-20.832 c -3.012,0 -5.572,1.004 -7.53,3.012 l 0,-13.957 -6.677,0 0,24.498 c 0,7.429 5.472,13.504 13.304,13.504 7.781,0 13.253,-6.075 13.253,-13.504 0,-7.479 -5.522,-13.553 -12.35,-13.553"
             style="fill:#ffffff;fill-opacity:1;fill-rule:nonzero;stroke:none"
             id="path4134"
             inkscape:connector-curvature="0" /></g><g
           id="g4136"
           transform="translate(411.1777,274.002)"><path
             d="m 0,0 c -3.665,0 -6.626,-3.262 -6.626,-7.279 0,-4.116 2.961,-7.43 6.626,-7.43 3.665,0 6.627,3.213 6.627,7.43 C 6.627,-3.111 3.665,0 0,0 m 0.904,-20.832 c -3.012,0 -5.572,1.004 -7.53,3.012 l 0,-13.957 -6.677,0 0,24.498 c 0,7.429 5.472,13.504 13.303,13.504 7.781,0 13.253,-6.075 13.253,-13.504 0,-7.479 -5.521,-13.553 -12.349,-13.553"
             style="fill:#ffffff;fill-opacity:1;fill-rule:nonzero;stroke:none"
             id="path4138"
             inkscape:connector-curvature="0" /></g><g
           id="g4140"
           transform="translate(448.1265,256.1309)"><path
             d="m 0,0 c -1.857,-1.908 -4.92,-3.012 -8.533,-3.012 -6.528,0 -11.145,2.862 -11.998,8.133 l 1.857,0 c 0.903,-4.168 4.618,-6.377 10.09,-6.377 3.113,0 5.723,1.004 7.229,2.561 C -0.451,2.26 0,3.514 -0.1,4.869 c -0.1,3.162 -2.661,4.77 -8.986,5.674 -4.468,0.652 -9.99,1.404 -10.09,6.525 0,3.514 3.313,7.028 9.789,7.028 5.723,0 9.489,-2.559 10.592,-7.229 l -1.907,0 c -1.054,3.465 -4.017,5.473 -8.635,5.473 -4.669,0 -7.981,-2.26 -7.932,-5.272 0.05,-2.961 2.761,-3.916 8.484,-4.718 C -3.413,11.547 1.557,10.141 1.808,4.92 1.857,3.113 1.256,1.305 0,0"
             style="fill:#ffffff;fill-opacity:1;fill-rule:nonzero;stroke:none"
             id="path4142"
             inkscape:connector-curvature="0" /></g><g
           id="g4144"
           transform="translate(448.1265,256.1309)"><path
             d="m 0,0 c -1.857,-1.908 -4.92,-3.012 -8.533,-3.012 -6.528,0 -11.145,2.862 -11.998,8.133 l 1.857,0 c 0.903,-4.168 4.618,-6.377 10.09,-6.377 3.113,0 5.723,1.004 7.229,2.561 C -0.451,2.26 0,3.514 -0.1,4.869 c -0.1,3.162 -2.661,4.77 -8.986,5.674 -4.468,0.652 -9.99,1.404 -10.09,6.525 0,3.514 3.313,7.028 9.789,7.028 5.723,0 9.489,-2.559 10.592,-7.229 l -1.907,0 c -1.054,3.465 -4.017,5.473 -8.635,5.473 -4.669,0 -7.981,-2.26 -7.932,-5.272 0.05,-2.961 2.761,-3.916 8.484,-4.718 C -3.413,11.547 1.557,10.141 1.808,4.92 1.857,3.113 1.256,1.305 0,0 Z"
             style="fill:none;stroke:#ffffff;stroke-width:0.958;stroke-linecap:butt;stroke-linejoin:miter;stroke-miterlimit:4;stroke-dasharray:none;stroke-opacity:1"
             id="path4146"
             inkscape:connector-curvature="0" /></g><path
           d="m 457.365,253.721 -1.857,0 0,25.854 1.857,0 0,-25.854 z m 0,30.222 -1.857,0 0,4.617 1.857,0 0,-4.617 z"
           style="fill:#ffffff;fill-opacity:1;fill-rule:nonzero;stroke:#ffffff;stroke-width:0.958;stroke-linecap:butt;stroke-linejoin:miter;stroke-miterlimit:4;stroke-dasharray:none;stroke-opacity:1"
           id="path4148"
           inkscape:connector-curvature="0" /><g
           id="g4150"
           transform="translate(483.3687,256.1309)"><path
             d="m 0,0 c -1.857,-1.908 -4.92,-3.012 -8.534,-3.012 -6.527,0 -11.145,2.862 -11.998,8.133 l 1.857,0 c 0.904,-4.168 4.618,-6.377 10.091,-6.377 3.112,0 5.723,1.004 7.229,2.561 C -0.451,2.26 0,3.514 -0.1,4.869 c -0.101,3.162 -2.662,4.77 -8.986,5.674 -4.469,0.652 -9.99,1.404 -10.091,6.525 0,3.514 3.314,7.028 9.789,7.028 5.724,0 9.489,-2.559 10.593,-7.229 l -1.908,0 c -1.054,3.465 -4.016,5.473 -8.635,5.473 -4.668,0 -7.981,-2.26 -7.932,-5.272 0.051,-2.961 2.762,-3.916 8.485,-4.718 C -3.414,11.547 1.557,10.141 1.807,4.92 1.857,3.113 1.255,1.305 0,0"
             style="fill:#ffffff;fill-opacity:1;fill-rule:nonzero;stroke:none"
             id="path4152"
             inkscape:connector-curvature="0" /></g><g
           id="g4154"
           transform="translate(483.3687,256.1309)"><path
             d="m 0,0 c -1.857,-1.908 -4.92,-3.012 -8.534,-3.012 -6.527,0 -11.145,2.862 -11.998,8.133 l 1.857,0 c 0.904,-4.168 4.618,-6.377 10.091,-6.377 3.112,0 5.723,1.004 7.229,2.561 C -0.451,2.26 0,3.514 -0.1,4.869 c -0.101,3.162 -2.662,4.77 -8.986,5.674 -4.469,0.652 -9.99,1.404 -10.091,6.525 0,3.514 3.314,7.028 9.789,7.028 5.724,0 9.489,-2.559 10.593,-7.229 l -1.908,0 c -1.054,3.465 -4.016,5.473 -8.635,5.473 -4.668,0 -7.981,-2.26 -7.932,-5.272 0.051,-2.961 2.762,-3.916 8.485,-4.718 C -3.414,11.547 1.557,10.141 1.807,4.92 1.857,3.113 1.255,1.305 0,0 Z"
             style="fill:none;stroke:#ffffff;stroke-width:0.958;stroke-linecap:butt;stroke-linejoin:miter;stroke-miterlimit:4;stroke-dasharray:none;stroke-opacity:1"
             id="path4156"
             inkscape:connector-curvature="0" /></g><g
           id="g4158"
           transform="translate(510.8794,263.5098)"><path
             d="m 0,0 c 0,-6.023 -4.368,-10.391 -10.392,-10.391 -6.023,0 -10.391,4.368 -10.391,10.391 l 0,21.588 1.857,0 0,-5.524 18.023,0 0,-1.857 -18.023,0 0,-14.207 c 0,-4.969 3.614,-8.533 8.534,-8.533 4.97,0 8.535,3.564 8.535,8.533 l 0,3.164 L 0,3.164 0,0 Z"
             style="fill:#ffffff;fill-opacity:1;fill-rule:nonzero;stroke:none"
             id="path4160"
             inkscape:connector-curvature="0" /></g><g
           id="g4162"
           transform="translate(510.8794,263.5098)"><path
             d="m 0,0 c 0,-6.023 -4.368,-10.391 -10.392,-10.391 -6.023,0 -10.391,4.368 -10.391,10.391 l 0,21.588 1.857,0 0,-5.524 18.023,0 0,-1.857 -18.023,0 0,-14.207 c 0,-4.969 3.614,-8.533 8.534,-8.533 4.97,0 8.535,3.564 8.535,8.533 l 0,3.164 L 0,3.164 0,0 Z"
             style="fill:none;stroke:#ffffff;stroke-width:0.958;stroke-linecap:butt;stroke-linejoin:miter;stroke-miterlimit:4;stroke-dasharray:none;stroke-opacity:1"
             id="path4164"
             inkscape:connector-curvature="0" /></g></g></g></g></svg>