<?xml version='1.0' encoding='utf-8'?>
<!DOCTYPE svg PUBLIC '-//W3C//DTD SVG 1.1//EN' 'http://www.w3.org/Graphics/SVG/1.1/DTD/svg11.dtd'>
<!-- Generator: Adobe Illustrator 18.1.0, SVG Export Plug-In . SVG Version: 6.00 Build 0)  -->
<svg xmlns="http://www.w3.org/2000/svg" preserveAspectRatio="none" xmlns:xlink="http://www.w3.org/1999/xlink" xml:space="preserve" viewBox="0 0 279 341.7" x="0px" y="0px" enable-background="new 0 0 279 341.7" version="1.1" id="Ebene_1">
 <g>
  <g>
   <path d="M173.7,337.5c0.6,2.3-7.7,2-9.2,2c-1.5,0-12.8,0.6-16.7,0.3c-3.9-0.3-12.6-0.3-16.8,0&#xd;&#xa;&#x9;&#x9;&#x9;c-4.2,0.3-11.4,2.1-14.7,0.8c-3.3-1.3-9.3-0.7-13.5-0.7c-5.2,0-8.8-1.4-8.8-1.4s18-60,14-127.2c-3.9-67.1,3-83.6,6.9-89.4&#xd;&#xa;&#x9;&#x9;&#x9;c18.1-0.6,46.5,0,46.5,0s4.2,2.6,5.1,7.7c0.9,5.2,0.6,53.6-0.3,65.5c-0.9,11.9-1.5,67.1,0,83.3&#xd;&#xa;&#x9;&#x9;&#x9;C167.8,294.6,173.1,335.3,173.7,337.5z" fill="#EDEEEE"/>
   <path d="M209.8,259.1c-0.2-0.3-0.4-0.5-0.6-0.7C209.3,258.5,209.5,258.7,209.8,259.1z" fill="#1B1213"/>
   <path d="M136.2,151.3c0.3-0.2,0.5-0.3,0.5-0.3C136.5,151.1,136.4,151.2,136.2,151.3z" fill="#E3E7E7"/>
   <g>
    <path d="M151.8,167.8c-0.6,1-2.7,3.9-2.7,3.9l-0.6-4.8c-0.3-10.3-2.7-14.5-2.7-14.5s1.8,1.3,3.6,5.5&#xd;&#xa;&#x9;&#x9;&#x9;&#x9;c1.8,4.2,8.8,11.3,8.8,11.3s3.6-13.9,4.8-16.5c1.2-2.6,1.8-22.9,1.8-22.9c2.7,5.2,1.2,29.7,0.9,38.7c-0.3,9-6,60-6.6,52.6&#xd;&#xa;&#x9;&#x9;&#x9;&#x9;c-0.6-7.4-0.9-27.8,0.6-33.6c1.5-5.8,4.2-17.4,1.8-16.8c-2.4,0.6-11.5,4.8-9.7,2.9C153.6,171.6,152.4,166.8,151.8,167.8z" fill="#E6E6E6"/>
    <path d="M136,170.6c0,0-3.2-2.9-4.5-4.1c-1.4-1.2-4.3,2.4-5.2,2.4c-0.9,0-7.5-0.5-8.2-1.7&#xd;&#xa;&#x9;&#x9;&#x9;&#x9;c-0.7-1.2-1.8-1.5-4.1-1.2c-2.3,0.2-2.3,20.1-2.3,20.1s-0.5-22.8-0.7-31.2c-0.2-8.5,0.7-15,0.7-15c0,9.4,2.5,13.6,4.3,16.5&#xd;&#xa;&#x9;&#x9;&#x9;&#x9;c1.8,2.9,4.3,11.9,5.4,11.6c1.1-0.2,5.4-5.6,5.4-5.6c2-3.8,4.1-6.5,5.9-8.3c-2.4,3.1-2.2,6.7-1.9,8.3&#xd;&#xa;&#x9;&#x9;&#x9;&#x9;C131.5,164.5,136,170.6,136,170.6z" fill="#E6E6E6"/>
   </g>
   <path d="M136.2,151.3c-0.6,0.4-1.8,1.3-3.3,2.7C133.7,153,134.8,152.1,136.2,151.3z" fill="#E3E7E7"/>
  </g>
  <path d="M250.9,341.7c0-1.6,0-3.2,0.1-4.9c0.1-3.7,0.5-7.4,0.4-11c-0.1-3.9-0.5-7.8-0.9-11.7&#xd;&#xa;&#x9;&#x9;c-0.1-0.9-0.5-2-0.2-2.7c1.5-3.9,0.3-7.7-0.2-11.6c-0.6-5.1-0.3-10.4-0.7-15.6c-0.3-4.2-1-8.5-1.8-12.6c-2.8-15-5.7-30-8.6-45&#xd;&#xa;&#x9;&#x9;c-1.7-8.7-3.5-17.4-5.1-26.2c-0.5-2.7-0.8-5.6-0.3-8.2c0.7-3.6,0.4-6.9-0.5-10.3c-1.6-5.6-3.5-11-5.1-16.6c-1.1-4-2.2-8-2.9-12.1&#xd;&#xa;&#x9;&#x9;c-0.3-1.8-1-2.6-2.6-3.2c-16.8-5.3-33.5-10.8-50.3-15.9c-3.7-1.1-5-4.5-6.6-7.4c-0.3-0.3-0.7-1.6-1-1.6c1.7,10.4,0.9,23.2,0.6,33.6&#xd;&#xa;&#x9;&#x9;c-0.4,11.8-1.1,23.6-1.3,35.4c-0.3,21.9-0.4,43.8-0.2,65.7c0.2,19.7,2.8,39.3,5.6,58.8c0.8,5.4,1.5,10.8,2.4,16.6&#xd;&#xa;&#x9;&#x9;c-5.7,1.1-11.2,2.1-16.9,1.1c-11.1-1.8-22.1-1.8-33.2,0c-5.5,0.9-11-0.1-16.8-1.1c0.6-3.8,1-7.4,1.6-10.9c5.1-31.9,7.5-64,6.8-96.3&#xd;&#xa;&#x9;&#x9;c-0.3-16-0.4-32-0.8-48c-0.3-11.8-1.1-23.6-1.3-35.4c-0.1-6.1,1.3-12.5,1.6-18.7c-0.6,1.1-2.1,2.5-2.7,3.7&#xd;&#xa;&#x9;&#x9;c-1.1,2.2-2.8,3.4-5.2,4.2c-14.9,4.7-29.8,9.5-44.7,14.3c-1.3,0.4-2.6,1.1-3.9,1.4c-4.4,1.2-4.3,1.2-5,5.8&#xd;&#xa;&#x9;&#x9;c-0.5,2.8-1.3,5.6-2.1,8.4c-2.1,7-4.3,13.9-6.2,21c-0.5,2,0,4.3,0,6.5c0,3,0.6,6.2-0.2,8.9c-3.2,10.4-4,21.2-6,31.7&#xd;&#xa;&#x9;&#x9;c-2.6,14-5.8,27.9-8.4,41.9c-0.8,4.3-1,8.7-1.2,13.1c-0.2,5.8,0.2,11.6-1.5,17.3c-0.3,1-0.4,2.2-0.1,3.1c1.4,4.2,0.1,8.2-0.2,12.4&#xd;&#xa;&#x9;&#x9;c-0.2,2.6,0.1,5.3,0.3,7.9c0.1,1.8,0.3,3.7,0.3,5.5c0,2.9-0.1,5.8-0.2,8.7C100.7,341.7,175.8,341.7,250.9,341.7z M208,253.2&#xd;&#xa;&#x9;&#x9;c1.1,2.4,2.3,4.6,3.1,6.9c1.6,5.3,3.3,10.6,1.6,16.3c-0.3,1,0,2.7,0.7,3.5c1.9,2.2,2.1,4.8,2.3,7.4c0.3,4.8,0.5,9.7,1.4,14.5&#xd;&#xa;&#x9;&#x9;c0.7,3.9-1,6.6-3.1,9.8c-2.4-4.4-4.2-8.4-4.9-12.9c-0.8-5.6-1.8-11.2-2.5-16.8c-0.5-3.9-0.9-7.8-0.6-11.7&#xd;&#xa;&#x9;&#x9;C206.3,264.6,207.3,259.1,208,253.2z M68.7,252.8c0.4,4.5,0.9,8.4,1.2,12.3c0.3,4.2,1,8.6,0.6,12.8c-0.7,7.1-1.9,14.2-3.1,21.3&#xd;&#xa;&#x9;&#x9;c-0.7,4.3-2.4,8.3-4.8,12.4c-2.3-3.3-3.6-6.2-3-10c0.8-5.1,0.9-10.4,1.5-15.5c0.3-2,1.3-3.8,1.9-5.8c0.4-1.4,1.2-2.9,0.9-4.2&#xd;&#xa;&#x9;&#x9;C61.9,267.8,65,260.6,68.7,252.8z" fill="#333333"/>
  <path d="M138.3,142c7.9-3.9,14.5-9.3,21-14.9c1.4-1.2,2.1-2.8,1.7-4.7c-0.6-2.6,0.3-4.9,1.1-7.4&#xd;&#xa;&#x9;&#x9;c1.6-5.2,2.8-10.5,4-15.8c0.4-2,1.1-3.6,2.8-5c1-0.8,1.9-2.1,2.1-3.3c0.7-4.1,1.9-8.4,1.3-12.3c-0.7-4.7,0.4-9.1,0.6-13.6&#xd;&#xa;&#x9;&#x9;c0.2-5.1,0.2-10.2,0.3-15.3c0-2.7-0.9-5-2.6-7c-2.1-2.4-3.8-5-6.1-7.1c-2-1.9-4.4-3.3-6.6-4.8c-2.2-1.5-4.4-3-6.7-4.4&#xd;&#xa;&#x9;&#x9;c-8.5-5.1-17-5.3-25.5-0.1c-3.1,1.8-6.3,3.4-9.2,5.5c-2.3,1.7-4.3,3.9-6.3,5.9c-1.3,1.3-2.3,2.9-3.5,4.3c-2.4,2.5-3.3,5.5-3.3,8.9&#xd;&#xa;&#x9;&#x9;c0,7.3-0.2,14.6,1.7,21.8c0.1,0.5,0.2,1.2,0,1.7c-2.2,5.8-0.4,11.4,0.7,17.1c0.2,1.1,1.4,2,2.1,3c0.9,1.4,2.1,2.8,2.5,4.3&#xd;&#xa;&#x9;&#x9;c1.8,6.2,3.5,12.4,5,18.7c0.4,1.5,0.4,3.2,0.2,4.8c-0.3,2.2,0.4,3.8,2,5.2C124,132.9,130.5,138,138.3,142z" fill="#333333"/>
  <path d="M154.7,301.8c-0.2-21.8-0.2-43.6-0.6-65.3c-0.3-12.2-0.9-24.5-2.1-36.7c-0.6-6.1-2.8-12.1-4.3-18.2&#xd;&#xa;&#x9;&#x9;c-0.2-0.7-0.4-1.3-0.7-2c-2.6-5.3-1.6-10,2.3-14.4c2.8-3.1,2.8-4.6,0.5-8c-1.6-2.3-3.2-4.6-5.2-6.5c-3.9-3.7-9.4-3.5-13,0.5&#xd;&#xa;&#x9;&#x9;c-2,2.2-3.7,4.8-5.5,7.2c-1.2,1.6-0.8,3.3,0,4.9c0.9,1.6,1.8,3.3,3,4.7c3.1,3.4,2.3,7.2,0.8,10.7c-4,9.4-5.7,19.3-6.2,29.4&#xd;&#xa;&#x9;&#x9;c-0.6,10.5-0.8,21-1,31.6c-0.3,14.9-0.3,29.9-0.6,44.8c-0.2,10.3-0.4,20.6-0.7,30.9c-0.1,2.6,0.5,4.8,2.4,6.6&#xd;&#xa;&#x9;&#x9;c3.8,3.4,7.5,6.8,11.4,10.1c1.8,1.5,3.9,1.7,5.7,0.1c4.4-3.8,8.7-7.6,12.8-11.6c0.9-0.9,1.1-2.8,1.1-4.2c0.1-4.9,0.1-9.7,0.1-14.6&#xd;&#xa;&#x9;&#x9;C154.9,301.8,154.8,301.8,154.7,301.8z" fill="#B3B3B3"/>
 </g>
</svg>
