<?xml version="1.0" standalone="no"?>
<!-- Generator: Adobe Fireworks 10, Export SVG Extension by Aaron Beall (http://fireworks.abeall.com) . Version: 0.6.1  -->
<!DOCTYPE svg PUBLIC "-//W3C//DTD SVG 1.1//EN" "http://www.w3.org/Graphics/SVG/1.1/DTD/svg11.dtd">
<svg id="icons.fw-Seite%201" viewBox="0 0 40 40" style="background-color:#ffffff00" version="1.1"
	xmlns="http://www.w3.org/2000/svg" xmlns:xlink="http://www.w3.org/1999/xlink" xml:space="preserve"
	x="0px" y="0px" width="40px" height="40px"
>
	<g>
		<path d="M 31.3652 37.127 L 27.6494 30.916 C 25.6094 31.9365 23.3252 32.4746 21.0313 32.4746 C 12.8691 32.4746 6.2295 25.835 6.2295 17.6733 C 6.2295 9.5122 12.8691 2.8726 21.0313 2.8726 C 25.9551 2.8726 30.543 5.312 33.3037 9.3979 L 33.7705 10.0884 L 29.3428 14.4312 L 28.7002 13.3052 C 27.1309 10.5562 24.1924 8.8491 21.0313 8.8491 C 16.165 8.8491 12.2061 12.8081 12.2061 17.6733 C 12.2061 22.54 16.165 26.498 21.0313 26.498 C 22.2031 26.498 23.3643 26.2646 24.4385 25.8174 L 21.582 19.7896 L 33.6035 23.7773 L 31.3652 37.127 ZM 28.3711 28.2275 L 30.291 31.4385 L 31.3477 25.1367 L 25.3926 23.1602 L 27.0732 26.7061 L 26.249 27.1602 C 24.6582 28.0352 22.8545 28.498 21.0313 28.498 C 15.0625 28.498 10.2061 23.6426 10.2061 17.6733 C 10.2061 11.7046 15.0625 6.8491 21.0313 6.8491 C 24.4795 6.8491 27.7119 8.5054 29.7383 11.2417 L 31.1611 9.8462 C 28.7412 6.7173 25.0127 4.8726 21.0313 4.8726 C 13.9727 4.8726 8.2295 10.6147 8.2295 17.6733 C 8.2295 24.7314 13.9727 30.4756 21.0313 30.4756 C 23.0898 30.4756 25.0547 30.002 26.8711 29.0684 C 27.0898 28.9561 27.5205 28.7109 27.5205 28.7109 L 28.3711 28.2275 Z" fill="#0090db"/>
	</g>
</svg>