<?xml version="1.0" encoding="utf-8"?>
<!-- Generator: Adobe Illustrator 16.0.0, SVG Export Plug-In . SVG Version: 6.00 Build 0)  -->
<!DOCTYPE svg PUBLIC "-//W3C//DTD SVG 1.1//EN" "http://www.w3.org/Graphics/SVG/1.1/DTD/svg11.dtd">
<svg version="1.1" id="Ebene_1" xmlns="http://www.w3.org/2000/svg" xmlns:xlink="http://www.w3.org/1999/xlink" x="0px" y="0px"
	 width="17px" height="17px" viewBox="0 0 17 17" enable-background="new 0 0 17 17" xml:space="preserve">
<g>
	<path fill="#EEEEEE" d="M8.46,14.455c-3.308,0-6-2.692-6-6c0-3.308,2.691-6,6-6c3.308,0,6,2.692,6,6
		C14.46,11.763,11.768,14.455,8.46,14.455z"/>
	<path fill="#555555" d="M8.46,4.455c2.205,0,4.001,1.795,4.001,4s-1.796,4.001-4.001,4.001s-4-1.796-4-4.001
		S6.255,4.455,8.46,4.455 M8.46,0.455c-4.417,0-8,3.582-8,8c0,4.42,3.583,8,8,8s8-3.58,8-8C16.46,4.037,12.877,0.455,8.46,0.455
		L8.46,0.455z"/>
</g>
</svg>
