<?xml version="1.0" standalone="no"?>
<!-- Generator: Adobe Fireworks 10, Export SVG Extension by Aaron Beall (http://fireworks.abeall.com) . Version: 0.6.1  -->
<!DOCTYPE svg PUBLIC "-//W3C//DTD SVG 1.1//EN" "http://www.w3.org/Graphics/SVG/1.1/DTD/svg11.dtd">
<svg id="certificate-print-Seite%201" viewBox="0 0 50 50" style="background-color:#ffffff00" version="1.1"
	xmlns="http://www.w3.org/2000/svg" xmlns:xlink="http://www.w3.org/1999/xlink" xml:space="preserve"
	x="0px" y="0px" width="50px" height="50px"
>
	<g id="Ebene%201">
		<g>
			<path d="M 33 23 C 33 22.4477 33.4477 22 34 22 C 34.5523 22 35 22.4477 35 23 C 35 23.5523 34.5523 24 34 24 C 33.4477 24 33 23.5523 33 23 ZM 12 19 L 12 32 L 19 32 L 19 29 L 31 29 L 31 32 L 38 32 L 38 19 L 12 19 Z" fill="#ffffff"/>
			<path d="M 18 12 L 32 12 L 32 18 L 18 18 L 18 12 Z" fill="#ffffff"/>
			<path d="M 18 32 L 19 32 L 19 37 L 18 37 L 18 32 Z" fill="#ffffff"/>
			<path d="M 19 36 L 32 36 L 32 37 L 19 37 L 19 36 Z" fill="#ffffff"/>
			<path d="M 31 32 L 32 32 L 32 37 L 31 37 L 31 32 Z" fill="#ffffff"/>
			<path d="M 21 31 L 29 31 L 29 32 L 21 32 L 21 31 Z" fill="#ffffff"/>
			<path d="M 21 33 L 29 33 L 29 34 L 21 34 L 21 33 Z" fill="#ffffff"/>
		</g>
	</g>
</svg>