<?xml version="1.0" standalone="no"?>
<!-- Generator: Adobe Fireworks 10, Export SVG Extension by Aaron Beall (http://fireworks.abeall.com) . Version: 0.6.1  -->
<!DOCTYPE svg PUBLIC "-//W3C//DTD SVG 1.1//EN" "http://www.w3.org/Graphics/SVG/1.1/DTD/svg11.dtd">
<svg id="new-desktop-controls-exam-previous" viewBox="0 0 40 40" style="background-color:#ffffff00" version="1.1"
	xmlns="http://www.w3.org/2000/svg" xmlns:xlink="http://www.w3.org/1999/xlink" xml:space="preserve"
	x="0px" y="0px" width="40px" height="40px"
>
	<g id="Ebene%20114">
		<g>
			<path d="M 8.2788 17.6669 L 6 20 L 17.7212 32 L 20 29.6661 L 8.2788 17.6669 Z" fill="#507d8f"/>
			<path d="M 6 20 L 8.2788 22.3339 L 20 10.3339 L 17.7212 8 L 6 20 Z" fill="#507d8f"/>
		</g>
		<path id="Ellipse3" d="M 26 19.5 C 26 18.1193 27.1193 17 28.5 17 C 29.8807 17 31 18.1193 31 19.5 C 31 20.8807 29.8807 22 28.5 22 C 27.1193 22 26 20.8807 26 19.5 Z" fill="#507d8f"/>
		<path id="Ellipse4" d="M 18 19.5 C 18 18.1193 19.1193 17 20.5 17 C 21.8807 17 23 18.1193 23 19.5 C 23 20.8807 21.8807 22 20.5 22 C 19.1193 22 18 20.8807 18 19.5 Z" fill="#507d8f"/>
	</g>
</svg>