<?xml version="1.0" standalone="no"?>
<!-- Generator: Adobe Fireworks 10, Export SVG Extension by Aaron Beall (http://fireworks.abeall.com) . Version: 0.6.1  -->
<!DOCTYPE svg PUBLIC "-//W3C//DTD SVG 1.1//EN" "http://www.w3.org/Graphics/SVG/1.1/DTD/svg11.dtd">
<svg id="exam-icon-message-header-Seite%201" viewBox="0 0 32 32" style="background-color:#ffffff00" version="1.1"
	xmlns="http://www.w3.org/2000/svg" xmlns:xlink="http://www.w3.org/1999/xlink" xml:space="preserve"
	x="0px" y="0px" width="32px" height="32px"
>
	<g id="Ebene%201">
		<g id="Ebene%252017">
			<g>
				<path d="M 23.1797 7.9746 L 29.6035 1 L 31 2.6963 L 24.5762 9.6709 L 23.1797 7.9746 Z" fill="#ffffff"/>
				<path d="M 21 6.3916 L 24.6201 9.6406 L 26.0176 7.9434 L 22.5986 4.7734 L 21 6.3916 Z" fill="#ffffff"/>
			</g>
			<g>
				<path d="M 23.1797 16.8389 L 29.6035 9.8633 L 31 11.5605 L 24.5762 18.5352 L 23.1797 16.8389 Z" fill="#ffffff"/>
				<path d="M 21 15.2559 L 24.6201 18.5039 L 26.0176 16.8076 L 22.5986 13.6377 L 21 15.2559 Z" fill="#ffffff"/>
			</g>
			<path d="M 2 3 L 17 3 L 17 5 L 2 5 L 2 3 Z" fill="#ffffff"/>
			<path d="M 2 9 L 17 9 L 17 11 L 2 11 L 2 9 Z" fill="#ffffff"/>
			<path d="M 2 15 L 17 15 L 17 17 L 2 17 L 2 15 Z" fill="#ffffff"/>
			<path d="M 2 21 L 17 21 L 17 23 L 2 23 L 2 21 Z" fill="#ffffff"/>
			<path d="M 2 27 L 17 27 L 17 29 L 2 29 L 2 27 Z" fill="#ffffff"/>
			<g>
				<g>
					<path d="M 29.7852 28.3711 L 23.3711 21.6758 L 21.6504 23.292 L 28.3906 30 L 29.7852 28.3711 Z" fill="#ffffff"/>
				</g>
				<path d="M 21.6504 28.3711 L 28.0635 21.6758 L 29.7852 23.292 L 23.0449 30 L 21.6504 28.3711 Z" fill="#ffffff"/>
			</g>
		</g>
	</g>
</svg>