<?xml version="1.0" encoding="utf-8"?>
<!-- Generator: Adobe Illustrator 18.0.0, SVG Export Plug-In . SVG Version: 6.00 Build 0)  -->
<!DOCTYPE svg PUBLIC "-//W3C//DTD SVG 1.1//EN" "http://www.w3.org/Graphics/SVG/1.1/DTD/svg11.dtd">
<svg version="1.1" id="Ebene_1" xmlns="http://www.w3.org/2000/svg" xmlns:xlink="http://www.w3.org/1999/xlink" x="0px" y="0px"
	 width="226.9px" height="46.1px" viewBox="0 0 226.9 46.1" style="enable-background:new 0 0 226.9 46.1;" xml:space="preserve">
<style type="text/css">
	.st0{fill-rule:evenodd;clip-rule:evenodd;fill:#0094DA;}
</style>
<path class="st0" d="M194.3,34.9c-1.5,0-2.7-1.2-2.7-2.6V13.9c0-1.5,1.2-2.6,2.7-2.6h15.9c1.5,0,2.7,1.2,2.7,2.6v18.4
	c0,1.5-1.2,2.6-2.7,2.6H194.3L194.3,34.9z M136,4.7c0-0.7,0.6-1.3,1.3-1.3h39.7c0.7,0,1.3,0.6,1.3,1.3v5.3c0,0.7-0.6,1.3-1.3,1.3
	h-13.2c-0.7,0-1.3,0.6-1.3,1.3v28.9c0,0.7-0.6,1.3-1.3,1.3h-7.9c-0.7,0-1.3-0.6-1.3-1.3V12.6c0-0.7-0.6-1.3-1.3-1.3h-13.2
	c-0.7,0-1.3-0.6-1.3-1.3V4.7L136,4.7z M90.9,19.1c0,4.3,3.6,7.9,8,7.9h21.2c1.5,0,2.7,1.2,2.7,2.6v2.6c0,1.5-1.2,2.6-2.7,2.6h-17.2
	c-0.7,0-1.3-0.6-1.3-1.3c0-0.7-0.6-1.3-1.3-1.3h-8c-0.7,0-1.3,0.6-1.3,1.3v1.3c0,4.4,3.6,7.9,8,7.9h26.5c4.4,0,7.9-3.5,7.9-7.9V27
	c0-4.4-3.6-7.9-7.9-7.9h-21.2c-1.5,0-2.7-1.2-2.7-2.6v-2.6c0-1.5,1.2-2.6,2.7-2.6h17.2c0.7,0,1.3,0.6,1.3,1.3c0,0.7,0.6,1.3,1.3,1.3
	h8c0.7,0,1.3-0.6,1.3-1.3v-1.3c0-4.4-3.6-7.9-7.9-7.9H98.9c-4.4,0-8,3.5-8,7.9V19.1L90.9,19.1z M45.9,4.7c0-0.7,0.6-1.3,1.3-1.3
	h39.8c0.7,0,1.3,0.6,1.3,1.3v5.3c0,0.7-0.6,1.3-1.3,1.3H57.8c-0.7,0-1.3,0.6-1.3,1.3v5.3c0,0.7,0.6,1.3,1.3,1.3h26.5
	c0.7,0,1.3,0.6,1.3,1.3v5.3c0,0.7-0.6,1.3-1.3,1.3H57.8c-0.7,0-1.3,0.6-1.3,1.3v5.2c0,0.7,0.6,1.3,1.3,1.3h29.2
	c0.7,0,1.3,0.6,1.3,1.3v5.2c0,0.7-0.6,1.3-1.3,1.3H47.2c-0.7,0-1.3-0.6-1.3-1.3V4.7L45.9,4.7z M4.8,42.8c-0.7,0-1.3-0.6-1.3-1.3V4.7
	C3.4,4,4,3.4,4.8,3.4h37.1c0.7,0,1.3,0.6,1.3,1.3v5.3c0,0.7-0.6,1.3-1.3,1.3H15.4c-0.7,0-1.3,0.6-1.3,1.3v5.3c0,0.7,0.6,1.3,1.3,1.3
	h23.9c0.7,0,1.3,0.6,1.3,1.3l0,5.3c0,0.7-0.6,1.3-1.3,1.3H15.4c-0.7,0-1.3,0.6-1.3,1.3v13.1c0,0.7-0.6,1.3-1.3,1.3H4.8L4.8,42.8z
	 M189,42.8c-4.4,0-7.9-3.5-7.9-7.9V11.2c0-4.4,3.6-7.9,7.9-7.9h26.5c4.4,0,7.9,3.5,7.9,7.9v23.6c0,4.4-3.5,7.9-7.9,7.9H189L189,42.8
	z"/>
</svg>
