<?xml version="1.0" standalone="no"?>
<!-- Generator: Adobe Fireworks 10, Export SVG Extension by Aaron Beall (http://fireworks.abeall.com) . Version: 0.6.1  -->
<!DOCTYPE svg PUBLIC "-//W3C//DTD SVG 1.1//EN" "http://www.w3.org/Graphics/SVG/1.1/DTD/svg11.dtd">
<svg id="visibility-invisible" viewBox="0 0 28 28" style="background-color:#ffffff" version="1.1"
	xmlns="http://www.w3.org/2000/svg" xmlns:xlink="http://www.w3.org/1999/xlink" xml:space="preserve"
	x="0px" y="0px" width="28px" height="28px"
>
	<g id="Ebene%2012">
		<path d="M 20.8828 15.0262 C 20.8828 11.175 17.8815 8.0529 14.1792 8.0529 C 10.4768 8.0529 7.4755 11.175 7.4755 15.0262 C 7.4755 18.8771 10.4768 22 14.1792 22 C 17.8815 22 20.8828 18.8771 20.8828 15.0262 Z" fill="#dadada"/>
		<path d="M 2 15.0799 C 2 15.0799 7.1686 8 13.8721 8 C 20.5756 8 26 14.8668 26 14.8668 C 26 14.8668 20.8316 21.9467 14.1279 21.9467 C 7.4244 21.9467 2 15.0799 2 15.0799 Z" stroke="#dadada" stroke-width="2" fill="none"/>
		<path d="M 21.56 6 L 23 7.44 L 6.44 24 L 5 22.56 L 21.56 6 Z" fill="#666666"/>
		<path d="M 6.44 6 L 5 7.44 L 21.56 24 L 23 22.56 L 6.44 6 Z" fill="#666666"/>
	</g>
</svg>