<?xml version="1.0" encoding="utf-8"?>
<!-- Generator: Adobe Illustrator 16.0.0, SVG Export Plug-In . SVG Version: 6.00 Build 0)  -->
<!DOCTYPE svg PUBLIC "-//W3C//DTD SVG 1.1//EN" "http://www.w3.org/Graphics/SVG/1.1/DTD/svg11.dtd">
<svg version="1.1" id="Ebene_1" xmlns="http://www.w3.org/2000/svg" xmlns:xlink="http://www.w3.org/1999/xlink" x="0px" y="0px"
	 width="29px" height="29px" viewBox="0 0 29 29" enable-background="new 0 0 29 29" xml:space="preserve">
<g>
	<path fill="#EEEEEE" d="M14.5,28.5c-7.72,0-14-6.279-14-14c0-7.72,6.28-14,14-14c7.721,0,14,6.28,14,14
		C28.5,22.221,22.221,28.5,14.5,28.5z"/>
	<path fill="#555555" d="M14.5,3.652c5.981,0,10.848,4.866,10.848,10.848c0,5.981-4.866,10.848-10.848,10.848
		c-5.982,0-10.848-4.866-10.848-10.848C3.652,8.518,8.518,3.652,14.5,3.652 M14.5,0C6.492,0,0,6.492,0,14.5
		C0,22.51,6.492,29,14.5,29S29,22.51,29,14.5C29,6.492,22.508,0,14.5,0L14.5,0z"/>
</g>
</svg>
