<?xml version='1.0' encoding='utf-8'?>
<!DOCTYPE svg PUBLIC '-//W3C//DTD SVG 1.1//EN' 'http://www.w3.org/Graphics/SVG/1.1/DTD/svg11.dtd'>
<!-- Generator: Adobe Illustrator 18.0.0, SVG Export Plug-In . SVG Version: 6.00 Build 0)  -->
<svg xmlns="http://www.w3.org/2000/svg" preserveAspectRatio="none" xmlns:xlink="http://www.w3.org/1999/xlink" xml:space="preserve" viewBox="0 0 147 168" x="0px" y="0px" style="enable-background:new 0 0 147 168;" height="168px" width="147px" version="1.1" id="Ebene_1">
 <style type="text/css">&#xd;
	.st0{fill-rule:evenodd;clip-rule:evenodd;fill:#FFFFFF;}&#xd;
	.st1{fill-rule:evenodd;clip-rule:evenodd;fill:#0094DA;}&#xd;
</style>
 <rect x="0" y="0" height="147" width="147" class="st0"/>
 <g>
  <g>
   <path d="M101.8,163.8c-0.8,0-1.4-0.6-1.4-1.4v-9.8c0-0.8,0.6-1.4,1.4-1.4h8.5c0.8,0,1.4,0.6,1.4,1.4v9.8&#xd;&#xa;&#x9;&#x9;&#x9;c0,0.8-0.6,1.4-1.4,1.4H101.8L101.8,163.8z M70.7,147.7c0-0.4,0.3-0.7,0.7-0.7h21.2c0.4,0,0.7,0.3,0.7,0.7v2.8&#xd;&#xa;&#x9;&#x9;&#x9;c0,0.4-0.3,0.7-0.7,0.7h-7.1c-0.4,0-0.7,0.3-0.7,0.7v15.4c0,0.4-0.3,0.7-0.7,0.7h-4.2c-0.4,0-0.7-0.3-0.7-0.7v-15.4&#xd;&#xa;&#x9;&#x9;&#x9;c0-0.4-0.3-0.7-0.7-0.7h-7.1c-0.4,0-0.7-0.3-0.7-0.7V147.7L70.7,147.7z M46.6,155.4c0,2.3,1.9,4.2,4.2,4.2h11.3&#xd;&#xa;&#x9;&#x9;&#x9;c0.8,0,1.4,0.6,1.4,1.4v1.4c0,0.8-0.6,1.4-1.4,1.4H53c-0.4,0-0.7-0.3-0.7-0.7c0-0.4-0.3-0.7-0.7-0.7h-4.2c-0.4,0-0.7,0.3-0.7,0.7&#xd;&#xa;&#x9;&#x9;&#x9;v0.7c0,2.3,1.9,4.2,4.2,4.2H65c2.3,0,4.2-1.9,4.2-4.2v-4.2c0-2.3-1.9-4.2-4.2-4.2H53.7c-0.8,0-1.4-0.6-1.4-1.4v-1.4&#xd;&#xa;&#x9;&#x9;&#x9;c0-0.8,0.6-1.4,1.4-1.4h9.2c0.4,0,0.7,0.3,0.7,0.7c0,0.4,0.3,0.7,0.7,0.7h4.2c0.4,0,0.7-0.3,0.7-0.7v-0.7c0-2.3-1.9-4.2-4.2-4.2&#xd;&#xa;&#x9;&#x9;&#x9;H50.9c-2.3,0-4.2,1.9-4.2,4.2V155.4L46.6,155.4z M22.6,147.7c0-0.4,0.3-0.7,0.7-0.7h21.2c0.4,0,0.7,0.3,0.7,0.7v2.8&#xd;&#xa;&#x9;&#x9;&#x9;c0,0.4-0.3,0.7-0.7,0.7H29c-0.4,0-0.7,0.3-0.7,0.7v2.8c0,0.4,0.3,0.7,0.7,0.7h14.1c0.4,0,0.7,0.3,0.7,0.7v2.8&#xd;&#xa;&#x9;&#x9;&#x9;c0,0.4-0.3,0.7-0.7,0.7H29c-0.4,0-0.7,0.3-0.7,0.7v2.8c0,0.4,0.3,0.7,0.7,0.7h15.5c0.4,0,0.7,0.3,0.7,0.7v2.8&#xd;&#xa;&#x9;&#x9;&#x9;c0,0.4-0.3,0.7-0.7,0.7H23.3c-0.4,0-0.7-0.3-0.7-0.7V147.7L22.6,147.7z M0.7,168c-0.4,0-0.7-0.3-0.7-0.7v-19.6&#xd;&#xa;&#x9;&#x9;&#x9;c0-0.4,0.3-0.7,0.7-0.7h19.8c0.4,0,0.7,0.3,0.7,0.7v2.8c0,0.4-0.3,0.7-0.7,0.7H6.4c-0.4,0-0.7,0.3-0.7,0.7v2.8&#xd;&#xa;&#x9;&#x9;&#x9;c0,0.4,0.3,0.7,0.7,0.7h12.7c0.4,0,0.7,0.3,0.7,0.7l0,2.8c0,0.4-0.3,0.7-0.7,0.7H6.4c-0.4,0-0.7,0.3-0.7,0.7v7&#xd;&#xa;&#x9;&#x9;&#x9;c0,0.4-0.3,0.7-0.7,0.7H0.7L0.7,168z M98.9,168c-2.3,0-4.2-1.9-4.2-4.2v-12.6c0-2.3,1.9-4.2,4.2-4.2h14.1c2.3,0,4.2,1.9,4.2,4.2&#xd;&#xa;&#x9;&#x9;&#x9;v12.6c0,2.3-1.9,4.2-4.2,4.2H98.9L98.9,168z" class="st1"/>
  </g>
 </g>
</svg>
