<?xml version="1.0" standalone="no"?>
<!-- Generator: Adobe Fireworks 10, Export SVG Extension by Aaron Beall (http://fireworks.abeall.com) . Version: 0.6.1  -->
<!DOCTYPE svg PUBLIC "-//W3C//DTD SVG 1.1//EN" "http://www.w3.org/Graphics/SVG/1.1/DTD/svg11.dtd">
<svg id="icons.fw-Seite%201" viewBox="0 0 40 40" style="background-color:#ffffff00" version="1.1"
	xmlns="http://www.w3.org/2000/svg" xmlns:xlink="http://www.w3.org/1999/xlink" xml:space="preserve"
	x="0px" y="0px" width="40px" height="40px"
>
	<g>
		<g>
			<path d="M 27.1758 25.3994 L 25.7617 23.9854 L 35.1465 14.6001 L 36.5605 16.0142 L 27.1758 25.3994 Z" fill="#0090db"/>
		</g>
		<path d="M 35.8535 24.6924 L 26.4678 15.3076 L 26.4678 15.3076 " stroke="#0090db" stroke-width="2" fill="none"/>
		<g>
			<path d="M 20.2397 9.9199 L 20.2397 30.9199 L 13.6401 24.0801 C 13.1602 23.5996 12.7998 23.1201 12.1997 23.1201 L 5.8398 23.1201 L 5.8398 17.1201 L 12.1997 17.1201 C 12.7998 17.1201 13.1602 16.7598 13.6401 16.3999 L 20.1196 9.4399 L 20.1196 9.4399 M 22.6396 3.4399 L 12.1997 14.7202 L 3.4399 14.7202 L 3.4399 25.5195 L 12.1997 25.5195 L 22.6396 36.5596 L 22.6396 3.4399 L 22.6396 3.4399 Z" fill="#0090db"/>
		</g>
	</g>
</svg>