<?xml version="1.0" encoding="utf-8"?>
<!-- Generator: Adobe Illustrator 16.0.0, SVG Export Plug-In . SVG Version: 6.00 Build 0)  -->
<!DOCTYPE svg PUBLIC "-//W3C//DTD SVG 1.1//EN" "http://www.w3.org/Graphics/SVG/1.1/DTD/svg11.dtd">
<svg version="1.1" id="Untitled-Seite_x25_201" xmlns="http://www.w3.org/2000/svg" xmlns:xlink="http://www.w3.org/1999/xlink"
	 x="0px" y="0px" width="30px" height="21px" viewBox="-282.5 431 30 21" enable-background="new -282.5 431 30 21"
	 xml:space="preserve">
<path fill="none" d="z"/>
<g id="Ebene_x25_201">
	<g id="Ellipse">
		<path fill="#FFFFFF" d="M-267.5,445c1.654,0,3,1.346,3,3s-1.346,3-3,3s-3-1.346-3-3S-269.154,445-267.5,445 M-267.5,444
			c-2.209,0-4,1.791-4,4s1.791,4,4,4s4-1.791,4-4S-265.291,444-267.5,444L-267.5,444z"/>
	</g>
	<path id="Ellipse2" fill="#FFFFFF" d="M-260.5,448c0-2.209,1.791-4,4-4s4,1.791,4,4s-1.791,4-4,4S-260.5,450.209-260.5,448z"/>
	<path id="Ellipse3" fill="#FFFFFF" d="M-282.5,448c0-2.209,1.791-4,4-4s4,1.791,4,4s-1.791,4-4,4S-282.5,450.209-282.5,448z"/>
	<path fill="#FFFFFF" d="M-257.5,438h-9l1.646,2h7.354V438z"/>
	<path fill="#FFFFFF" d="M-259.5,440v-9l2,1.646V440H-259.5z"/>
	<path fill="none" stroke="#FFFFFF" stroke-width="2" d="M-259.5,438c-1.122-4.513-12.029-11.443-17.967,1.647"/>
</g>
<path fill="none" d="z"/>
</svg>
