<?xml version="1.0" encoding="utf-8"?>
<!-- Generator: Adobe Illustrator 16.0.0, SVG Export Plug-In . SVG Version: 6.00 Build 0)  -->
<!DOCTYPE svg PUBLIC "-//W3C//DTD SVG 1.1//EN" "http://www.w3.org/Graphics/SVG/1.1/DTD/svg11.dtd">
<svg version="1.1" id="Untitled-Seite_x25_201" xmlns="http://www.w3.org/2000/svg" xmlns:xlink="http://www.w3.org/1999/xlink"
	 x="0px" y="0px" width="20px" height="34px" viewBox="-287.5 437.5 20 34" enable-background="new -287.5 437.5 20 34"
	 xml:space="preserve">
<path fill="none" d="z"/>
<g id="Ebene_x25_201">
	<path fill="#FFFFFF" d="M-269.5,449.5h-2v-4c0-2.279-1.189-6.336-5.639-6.336c-4.323,0-6.361,4.055-6.361,6.336v4h-2v-4
		c0-4.866,3.97-8,8.361-8c4.401,0,7.639,3.134,7.639,8V449.5z"/>
	<path fill="#FFFFFF" d="M-280.5,459.5c0-1.656,1.343-3,3-3s3,1.344,3,3c0,1.307-0.835,2.418-2,2.83v5.17h-2v-5.17
		C-279.665,461.918-280.5,460.807-280.5,459.5z M-287.5,451.5v20h20v-20H-287.5z"/>
</g>
<path fill="none" d="z"/>
</svg>
