<?xml version="1.0" standalone="no"?>
<!-- Generator: Adobe Fireworks 10, Export SVG Extension by Aaron Beall (http://fireworks.abeall.com) . Version: 0.6.1  -->
<!DOCTYPE svg PUBLIC "-//W3C//DTD SVG 1.1//EN" "http://www.w3.org/Graphics/SVG/1.1/DTD/svg11.dtd">
<svg id="Untitled-Seite%201" viewBox="0 0 30 27" style="background-color:#ffffff00" version="1.1"
	xmlns="http://www.w3.org/2000/svg" xmlns:xlink="http://www.w3.org/1999/xlink" xml:space="preserve"
	x="0px" y="0px" width="30px" height="27px"
>
	<g id="Ebene%201">
		<path d="M 18 0 L 18 12 L 23 12 C 23.1187 13.577 23.5634 19.462 18 22 C 17.9659 22.0156 18 27 18 27 C 18 27 30 27.0994 30 12.2344 L 30 0 L 18 0 Z" fill="#cccccc"/>
		<path d="M 0 0 L 0 12 L 5 12 C 5.1187 13.577 5.5634 19.462 0 22 C -0.0341 22.0156 0 27 0 27 C 0 27 12 27.0994 12 12.2344 L 12 0 L 0 0 Z" fill="#cccccc"/>
	</g>
</svg>