<?xml version="1.0" standalone="no"?>
<!-- Generator: Adobe Fireworks 10, Export SVG Extension by Aaron Beall (http://fireworks.abeall.com) . Version: 0.6.1  -->
<!DOCTYPE svg PUBLIC "-//W3C//DTD SVG 1.1//EN" "http://www.w3.org/Graphics/SVG/1.1/DTD/svg11.dtd">
<svg id="icons.fw-Seite%201" viewBox="0 0 40 40" style="background-color:#ffffff00" version="1.1"
	xmlns="http://www.w3.org/2000/svg" xmlns:xlink="http://www.w3.org/1999/xlink" xml:space="preserve"
	x="0px" y="0px" width="40px" height="40px"
>
	<path d="M 30.9756 35.2051 L 32.623 25.3799 L 23.6348 22.3975 L 25.9141 27.207 C 24.5098 27.9805 22.8955 28.4209 21.1787 28.4209 C 15.7524 28.4209 11.354 24.0225 11.354 18.5962 C 11.354 13.1704 15.7524 8.7715 21.1787 8.7715 C 24.835 8.7715 28.0244 10.769 29.7168 13.7319 L 32.623 10.8799 C 30.1426 7.209 25.9424 4.7954 21.1787 4.7954 C 13.5566 4.7954 7.377 10.9741 7.377 18.5962 C 7.377 26.2188 13.5566 32.3975 21.1787 32.3975 C 23.4473 32.3975 25.5879 31.8506 27.4766 30.8809 C 27.709 30.7607 28.1621 30.5029 28.1621 30.5029 L 30.9756 35.2051 Z" fill="#0090db"/>
</svg>