<?xml version="1.0" encoding="utf-8"?>
<!-- Generator: Adobe Illustrator 16.0.0, SVG Export Plug-In . SVG Version: 6.00 Build 0)  -->
<!DOCTYPE svg PUBLIC "-//W3C//DTD SVG 1.1//EN" "http://www.w3.org/Graphics/SVG/1.1/DTD/svg11.dtd">
<svg version="1.1" id="Ebene_1" xmlns="http://www.w3.org/2000/svg" xmlns:xlink="http://www.w3.org/1999/xlink" x="0px" y="0px"
	 width="135px" height="160px" viewBox="0 0 135 160" enable-background="new 0 0 135 160" xml:space="preserve">
<g>
	<path opacity="0.8" fill-rule="evenodd" clip-rule="evenodd" fill="#999999" d="M133,157c0,1.649-1.35,3-3,3H3c-1.65,0-3-1.351-3-3
		V74c0-1.65,1.35-3,3-3h127c1.65,0,3,1.35,3,3V157z"/>
	<g>
		<path fill="#999999" d="M86,30v127H3V30H86 M86,27H3c-1.65,0-3,1.35-3,3v127c0,1.649,1.35,3,3,3h83c1.65,0,3-1.351,3-3V30
			C89,28.35,87.65,27,86,27L86,27z"/>
	</g>
	
		<path fill-rule="evenodd" clip-rule="evenodd" fill="none" stroke="#999999" stroke-width="3" stroke-linecap="round" stroke-linejoin="round" stroke-miterlimit="10" d="
		M69.121,9.885c18.52-17.18,50.52-8.18,51.84,35.17"/>
</g>
<polygon fill-rule="evenodd" clip-rule="evenodd" fill="#999999" points="121.641,47.975 129,32.705 109.891,35.645 "/>
</svg>
