<?xml version="1.0" encoding="utf-8"?>
<!-- Generator: Adobe Illustrator 16.0.0, SVG Export Plug-In . SVG Version: 6.00 Build 0)  -->
<!DOCTYPE svg PUBLIC "-//W3C//DTD SVG 1.1//EN" "http://www.w3.org/Graphics/SVG/1.1/DTD/svg11.dtd">
<svg version="1.1" id="Ebene_1" xmlns="http://www.w3.org/2000/svg" xmlns:xlink="http://www.w3.org/1999/xlink" x="0px" y="0px"
	 width="24px" height="24px" viewBox="0 14.5 24 24" enable-background="new 0 14.5 24 24" xml:space="preserve">
<g>
	<path fill="#D3D3D3" d="M13.889,23.314c0-0.713-0.543-1.07-1.258-1.07c-0.696,0-2.001,0.107-2.334,0.849L8.926,21.98
		c0.667-1.11,2.065-1.444,3.408-1.444c1.955,0,3.484,0.901,3.484,2.771c0,2.228-2.781,2.452-2.566,4.674h-2.176
		C10.704,25.352,13.889,24.572,13.889,23.314z M12.213,29.273c0.958,0,1.682,0.688,1.682,1.682c0,1.009-0.724,1.716-1.682,1.716
		s-1.681-0.707-1.681-1.716C10.532,29.963,11.255,29.273,12.213,29.273z"/>
</g>
</svg>
