<?xml version="1.0" encoding="utf-8"?>
<!-- Generator: Adobe Illustrator 16.0.0, SVG Export Plug-In . SVG Version: 6.00 Build 0)  -->
<!DOCTYPE svg PUBLIC "-//W3C//DTD SVG 1.1//EN" "http://www.w3.org/Graphics/SVG/1.1/DTD/svg11.dtd">
<svg version="1.1" id="Ebene_1" xmlns="http://www.w3.org/2000/svg" xmlns:xlink="http://www.w3.org/1999/xlink" x="0px" y="0px"
	 width="24px" height="24px" viewBox="3.5 15.5 24 24" enable-background="new 3.5 15.5 24 24" xml:space="preserve">
<g>
	<g>
		<path fill="#CDCCCC" d="M7.981,27.5c0-3.291,1.451-5.986,3.776-8l1.987,1.139c-2.13,2.03-3.043,4.096-3.043,6.861
			s0.913,4.832,3.043,6.863L11.757,35.5C9.432,33.486,7.981,30.792,7.981,27.5z"/>
	</g>
</g>
<g>
	<g>
		<path fill="#CDCCCC" d="M19.287,35.5L17.3,34.363c2.13-2.031,3.044-4.098,3.044-6.863c0-2.768-0.914-4.832-3.044-6.863
			l1.987-1.137c2.326,2.014,3.775,4.709,3.775,8C23.063,30.792,21.613,33.486,19.287,35.5z"/>
	</g>
</g>
</svg>
