<?xml version='1.0' encoding='utf-8'?>
<!DOCTYPE svg PUBLIC '-//W3C//DTD SVG 1.1//EN' 'http://www.w3.org/Graphics/SVG/1.1/DTD/svg11.dtd'>
<!-- Generator: Adobe Fireworks 10, Export SVG Extension by Aaron Beall (http://fireworks.abeall.com) . Version: 0.6.1  -->
<svg id="icons.fw-Seite%201" width="40px" viewBox="0 0 40 40" xmlns:xlink="http://www.w3.org/1999/xlink" xmlns="http://www.w3.org/2000/svg" height="40px" xml:space="preserve" version="1.1" x="0px" y="0px" style="background-color:#ffffff00" preserveAspectRatio="none">
 <g>
  <g>
   <path d="M 20.6816 9.9199 L 20.6816 30.9199 L 14.0815 24.0801 C 13.6016 23.5996 13.2412 23.1201 12.6416 23.1201 L 6.2813 23.1201 L 6.2813 17.1201 L 12.6416 17.1201 C 13.2412 17.1201 13.6016 16.7598 14.0815 16.3999 L 20.5615 9.4399 L 20.5615 9.4399 M 23.0811 3.4399 L 12.6416 14.7202 L 3.8813 14.7202 L 3.8813 25.5195 L 12.6416 25.5195 L 23.0811 36.5596 L 23.0811 3.4399 L 23.0811 3.4399 Z" fill="#0090db"/>
  </g>
  <g>
   <path d="M 28.1084 28.627 L 26.6943 27.2129 C 30.6172 23.291 30.6133 16.8154 26.6846 12.7773 L 28.1182 11.3828 C 32.8047 16.2002 32.8008 23.9355 28.1084 28.627 Z" fill="#0090db"/>
  </g>
  <g>
   <path d="M 32.7891 32.9473 L 31.375 31.5332 C 37.7012 25.207 37.7012 14.9131 31.375 8.5869 L 32.7891 7.1729 C 39.8955 14.2793 39.8955 25.8408 32.7891 32.9473 Z" fill="#0090db"/>
  </g>
 </g>
</svg>
